<svg width="24" height="24" viewBox="0 0 24 24" fill="none" xmlns="http://www.w3.org/2000/svg">
<path fill-rule="evenodd" clip-rule="evenodd" d="M4.39374 3.76625C4.69437 3.7649 4.98657 3.86555 5.2226 4.05175C5.45862 4.23796 5.62452 4.4987 5.69317 4.79139V4.78625L5.2766 4.89253L5.69489 4.79653L5.69317 4.79139L6.52803 8.06568L15.3155 6.30853C16.3546 6.10473 17.4258 6.1324 18.453 6.38959C19.4802 6.64677 20.4381 7.12715 21.2585 7.79655C22.079 8.46594 22.7419 9.30792 23.2 10.2626C23.6581 11.2172 23.9003 12.2611 23.9092 13.32V13.3251C23.9094 13.6226 23.851 13.9171 23.7373 14.192C23.6235 14.4668 23.4567 14.7166 23.2464 14.9269C23.0361 15.1372 22.7863 15.304 22.5115 15.4178C22.2366 15.5315 21.9421 15.5899 21.6446 15.5897H13.7966L12.0875 18.2931L12.0857 18.2948C11.7144 18.8718 11.2045 19.3467 10.6027 19.6764C10.0009 20.006 9.32621 20.1799 8.64003 20.1822H6.61203C6.38195 20.1803 6.1562 20.1194 5.95629 20.0055C5.75639 19.8916 5.58899 19.7283 5.47006 19.5314C5.35112 19.3344 5.2846 19.1103 5.27685 18.8803C5.26909 18.6503 5.32035 18.4222 5.42574 18.2177L5.80803 18.4131L5.42746 18.216L6.72689 15.6445H2.35546C2.05786 15.645 1.7631 15.5867 1.48805 15.4731C1.213 15.3595 0.963065 15.1927 0.752553 14.9824C0.542042 14.772 0.37509 14.5222 0.261257 14.2472C0.147425 13.9723 0.0889472 13.6776 0.089173 13.38V5.11368C0.089173 4.75632 0.231134 4.41359 0.483826 4.1609C0.736518 3.90821 1.07924 3.76625 1.4366 3.76625H4.39374Z" fill="#34495E"/>
</svg>
