<svg width="88" height="88" viewBox="0 0 88 88" fill="none" xmlns="http://www.w3.org/2000/svg">
<path d="M9.42847 21.2143C9.42847 18.0885 10.6702 15.0908 12.8804 12.8805C15.0907 10.6703 18.0884 9.42859 21.2142 9.42859H66.7856C69.9114 9.42859 72.9091 10.6703 75.1194 12.8805C77.3296 15.0908 78.5713 18.0885 78.5713 21.2143V45.5714C77.1118 44.4742 75.5298 43.5503 73.857 42.8183V21.2143C73.857 19.3388 73.112 17.5402 71.7859 16.214C70.4597 14.8879 68.6611 14.1429 66.7856 14.1429H21.2142C19.3387 14.1429 17.5401 14.8879 16.2139 16.214C14.8878 17.5402 14.1428 19.3388 14.1428 21.2143V66.7857C14.1428 68.6612 14.8878 70.4598 16.2139 71.786C17.5401 73.1121 19.3387 73.8572 21.2142 73.8572H42.8182C43.5536 75.5386 44.4808 77.1194 45.5682 78.5714H21.2142C18.0884 78.5714 15.0907 77.3297 12.8804 75.1195C10.6702 72.9092 9.42847 69.9115 9.42847 66.7857V21.2143ZM66.7856 40.8572C67.4108 40.8572 68.0103 40.6088 68.4524 40.1668C68.8944 39.7247 69.1428 39.1252 69.1428 38.5C69.1428 37.8749 68.8944 37.2753 68.4524 36.8333C68.0103 36.3912 67.4108 36.1429 66.7856 36.1429H43.2142C42.589 36.1429 41.9895 36.3912 41.5474 36.8333C41.1054 37.2753 40.857 37.8749 40.857 38.5C40.857 39.1252 41.1054 39.7247 41.5474 40.1668C41.9895 40.6088 42.589 40.8572 43.2142 40.8572H66.7856ZM18.857 22.7857C18.857 22.1606 19.1054 21.561 19.5474 21.119C19.9895 20.6769 20.589 20.4286 21.2142 20.4286H66.7856C67.4108 20.4286 68.0103 20.6769 68.4524 21.119C68.8944 21.561 69.1428 22.1606 69.1428 22.7857C69.1428 23.4109 68.8944 24.0104 68.4524 24.4525C68.0103 24.8945 67.4108 25.1429 66.7856 25.1429H21.2142C20.589 25.1429 19.9895 24.8945 19.5474 24.4525C19.1054 24.0104 18.857 23.4109 18.857 22.7857ZM26.7142 31.4286C24.6303 31.4286 22.6318 32.2564 21.1583 33.7299C19.6848 35.2034 18.857 37.2019 18.857 39.2857C18.857 41.3696 19.6848 43.3681 21.1583 44.8416C22.6318 46.3151 24.6303 47.1429 26.7142 47.1429C28.798 47.1429 30.7965 46.3151 32.27 44.8416C33.7435 43.3681 34.5713 41.3696 34.5713 39.2857C34.5713 37.2019 33.7435 35.2034 32.27 33.7299C30.7965 32.2564 28.798 31.4286 26.7142 31.4286ZM23.5713 39.2857C23.5713 38.4522 23.9024 37.6528 24.4918 37.0634C25.0812 36.474 25.8806 36.1429 26.7142 36.1429C27.5477 36.1429 28.3471 36.474 28.9365 37.0634C29.5259 37.6528 29.857 38.4522 29.857 39.2857C29.857 40.1193 29.5259 40.9187 28.9365 41.5081C28.3471 42.0975 27.5477 42.4286 26.7142 42.4286C25.8806 42.4286 25.0812 42.0975 24.4918 41.5081C23.9024 40.9187 23.5713 40.1193 23.5713 39.2857ZM18.857 61.2857C18.857 59.2019 19.6848 57.2034 21.1583 55.7299C22.6318 54.2564 24.6303 53.4286 26.7142 53.4286C28.798 53.4286 30.7965 54.2564 32.27 55.7299C33.7435 57.2034 34.5713 59.2019 34.5713 61.2857C34.5713 63.3696 33.7435 65.3681 32.27 66.8416C30.7965 68.3151 28.798 69.1429 26.7142 69.1429C24.6303 69.1429 22.6318 68.3151 21.1583 66.8416C19.6848 65.3681 18.857 63.3696 18.857 61.2857ZM26.7142 58.1429C25.8806 58.1429 25.0812 58.474 24.4918 59.0634C23.9024 59.6528 23.5713 60.4522 23.5713 61.2857C23.5713 62.1193 23.9024 62.9187 24.4918 63.5081C25.0812 64.0975 25.8806 64.4286 26.7142 64.4286C27.5477 64.4286 28.3471 64.0975 28.9365 63.5081C29.5259 62.9187 29.857 62.1193 29.857 61.2857C29.857 60.4522 29.5259 59.6528 28.9365 59.0634C28.3471 58.474 27.5477 58.1429 26.7142 58.1429ZM84.857 64.4286C84.857 69.8466 82.7048 75.0427 78.8736 78.8738C75.0425 82.7049 69.8465 84.8572 64.4285 84.8572C59.0105 84.8572 53.8144 82.7049 49.9833 78.8738C46.1522 75.0427 43.9999 69.8466 43.9999 64.4286C43.9999 59.0106 46.1522 53.8145 49.9833 49.9834C53.8144 46.1523 59.0105 44 64.4285 44C69.8465 44 75.0425 46.1523 78.8736 49.9834C82.7048 53.8145 84.857 59.0106 84.857 64.4286ZM69.5 44.8416C69.5 44.4248 66.5 44.5 66 44.5C65.5 44.5 64.4168 44.0397 64 44.0397C63.5832 44.0397 61.2947 44.2053 61 44.5C60.7053 44.7947 56 45.5832 56 46L50.2856 50.746L45 58.5C44.5832 58.5 44.2946 64.1339 43.9999 64.4286C43.7052 64.7233 44.5 67.5832 44.5 68C44.5 68.4168 44.7053 69.2053 45 69.5C45.2947 69.7947 45.5832 72.5 46 72.5L49.9833 78.8738L57 82.5C57 82.5 57.6827 83.9603 60 83.5C62.3173 83.0397 64.0117 84.8572 64.4285 84.8572C64.8452 84.8572 68 84.5426 68 84.5426C68.2947 84.2479 72.5 83.4168 72.5 83L78.8736 78.8738L84.5 67.5C84.9168 67.5 84.5604 65.0036 84.8551 64.7089C85.1498 64.4142 84.8137 63.5146 84.8137 63.0979C84.8137 62.6811 84.7947 61.7947 84.5 61.5C84.2053 61.2053 83.4168 56 83 56L78.8736 49.9834L69.5 44.8416Z" fill="#B0D6F2"/>
<path fill-rule="evenodd" clip-rule="evenodd" d="M64.5 85C67.1921 85 69.8578 84.4698 72.345 83.4395C74.8322 82.4093 77.0921 80.8993 78.9957 78.9957C80.8993 77.0921 82.4093 74.8322 83.4395 72.345C84.4698 69.8578 85 67.1921 85 64.5C85 61.8079 84.4698 59.1422 83.4395 56.655C82.4093 54.1678 80.8993 51.9079 78.9957 50.0043C77.0921 48.1007 74.8322 46.5907 72.345 45.5605C69.8578 44.5302 67.1921 44 64.5 44C59.0631 44 53.8488 46.1598 50.0043 50.0043C46.1598 53.8488 44 59.0631 44 64.5C44 69.9369 46.1598 75.1512 50.0043 78.9957C53.8488 82.8402 59.0631 85 64.5 85ZM63.9716 72.7911L75.3604 59.1244L71.8618 56.2089L62.0673 67.9599L56.9993 62.8896L53.7785 66.1104L60.6118 72.9437L62.3748 74.7067L63.9716 72.7911Z" fill="#FB7373"/>
</svg>
