<svg width="88" height="88" viewBox="0 0 88 88" fill="none" xmlns="http://www.w3.org/2000/svg">
<path d="M9.42847 21.2143C9.42847 18.0885 10.6702 15.0908 12.8804 12.8805C15.0907 10.6703 18.0884 9.42859 21.2142 9.42859H66.7856C69.9114 9.42859 72.9091 10.6703 75.1194 12.8805C77.3296 15.0908 78.5713 18.0885 78.5713 21.2143V45.5714C77.1118 44.4742 75.5298 43.5503 73.857 42.8183V21.2143C73.857 19.3388 73.112 17.5402 71.7859 16.214C70.4597 14.8879 68.6611 14.1429 66.7856 14.1429H21.2142C19.3387 14.1429 17.5401 14.8879 16.2139 16.214C14.8878 17.5402 14.1428 19.3388 14.1428 21.2143V66.7857C14.1428 68.6612 14.8878 70.4598 16.2139 71.786C17.5401 73.1121 19.3387 73.8572 21.2142 73.8572H42.8182C43.5536 75.5386 44.4808 77.1194 45.5682 78.5714H21.2142C18.0884 78.5714 15.0907 77.3297 12.8804 75.1195C10.6702 72.9092 9.42847 69.9115 9.42847 66.7857V21.2143ZM66.7856 40.8572C67.4108 40.8572 68.0103 40.6088 68.4524 40.1668C68.8944 39.7247 69.1428 39.1252 69.1428 38.5C69.1428 37.8749 68.8944 37.2753 68.4524 36.8333C68.0103 36.3912 67.4108 36.1429 66.7856 36.1429H43.2142C42.589 36.1429 41.9895 36.3912 41.5474 36.8333C41.1054 37.2753 40.857 37.8749 40.857 38.5C40.857 39.1252 41.1054 39.7247 41.5474 40.1668C41.9895 40.6088 42.589 40.8572 43.2142 40.8572H66.7856ZM18.857 22.7857C18.857 22.1606 19.1054 21.561 19.5474 21.119C19.9895 20.6769 20.589 20.4286 21.2142 20.4286H66.7856C67.4108 20.4286 68.0103 20.6769 68.4524 21.119C68.8944 21.561 69.1428 22.1606 69.1428 22.7857C69.1428 23.4109 68.8944 24.0104 68.4524 24.4525C68.0103 24.8945 67.4108 25.1429 66.7856 25.1429H21.2142C20.589 25.1429 19.9895 24.8945 19.5474 24.4525C19.1054 24.0104 18.857 23.4109 18.857 22.7857ZM26.7142 31.4286C24.6303 31.4286 22.6318 32.2564 21.1583 33.7299C19.6848 35.2034 18.857 37.2019 18.857 39.2857C18.857 41.3696 19.6848 43.3681 21.1583 44.8416C22.6318 46.3151 24.6303 47.1429 26.7142 47.1429C28.798 47.1429 30.7965 46.3151 32.27 44.8416C33.7435 43.3681 34.5713 41.3696 34.5713 39.2857C34.5713 37.2019 33.7435 35.2034 32.27 33.7299C30.7965 32.2564 28.798 31.4286 26.7142 31.4286ZM23.5713 39.2857C23.5713 38.4522 23.9024 37.6528 24.4918 37.0634C25.0812 36.474 25.8806 36.1429 26.7142 36.1429C27.5477 36.1429 28.3471 36.474 28.9365 37.0634C29.5259 37.6528 29.857 38.4522 29.857 39.2857C29.857 40.1193 29.5259 40.9187 28.9365 41.5081C28.3471 42.0975 27.5477 42.4286 26.7142 42.4286C25.8806 42.4286 25.0812 42.0975 24.4918 41.5081C23.9024 40.9187 23.5713 40.1193 23.5713 39.2857ZM18.857 61.2857C18.857 59.2019 19.6848 57.2034 21.1583 55.7299C22.6318 54.2564 24.6303 53.4286 26.7142 53.4286C28.798 53.4286 30.7965 54.2564 32.27 55.7299C33.7435 57.2034 34.5713 59.2019 34.5713 61.2857C34.5713 63.3696 33.7435 65.3681 32.27 66.8416C30.7965 68.3151 28.798 69.1429 26.7142 69.1429C24.6303 69.1429 22.6318 68.3151 21.1583 66.8416C19.6848 65.3681 18.857 63.3696 18.857 61.2857ZM26.7142 58.1429C25.8806 58.1429 25.0812 58.474 24.4918 59.0634C23.9024 59.6528 23.5713 60.4522 23.5713 61.2857C23.5713 62.1193 23.9024 62.9187 24.4918 63.5081C25.0812 64.0975 25.8806 64.4286 26.7142 64.4286C27.5477 64.4286 28.3471 64.0975 28.9365 63.5081C29.5259 62.9187 29.857 62.1193 29.857 61.2857C29.857 60.4522 29.5259 59.6528 28.9365 59.0634C28.3471 58.474 27.5477 58.1429 26.7142 58.1429ZM84.857 64.4286C84.857 69.8466 82.7048 75.0427 78.8736 78.8738C75.0425 82.7049 69.8465 84.8572 64.4285 84.8572C59.0105 84.8572 53.8144 82.7049 49.9833 78.8738C46.1522 75.0427 43.9999 69.8466 43.9999 64.4286C43.9999 59.0106 46.1522 53.8145 49.9833 49.9834C53.8144 46.1523 59.0105 44 64.4285 44C69.8465 44 75.0425 46.1523 78.8736 49.9834C82.7048 53.8145 84.857 59.0106 84.857 64.4286ZM65.9999 51.8572C65.9999 51.4404 65.8343 51.0407 65.5396 50.746C65.2449 50.4513 64.8452 50.2857 64.4285 50.2857C64.0117 50.2857 63.612 50.4513 63.3173 50.746C63.0226 51.0407 62.857 51.4404 62.857 51.8572V62.8572H51.857C51.4403 62.8572 51.0406 63.0227 50.7459 63.3174C50.4512 63.6121 50.2856 64.0118 50.2856 64.4286C50.2856 64.8454 50.4512 65.2451 50.7459 65.5398C51.0406 65.8345 51.4403 66 51.857 66H62.857V77C62.857 77.4168 63.0226 77.8165 63.3173 78.1112C63.612 78.4059 64.0117 78.5714 64.4285 78.5714C64.8452 78.5714 65.2449 78.4059 65.5396 78.1112C65.8343 77.8165 65.9999 77.4168 65.9999 77V66H76.9999C77.4167 66 77.8164 65.8345 78.1111 65.5398C78.4058 65.2451 78.5713 64.8454 78.5713 64.4286C78.5713 64.0118 78.4058 63.6121 78.1111 63.3174C77.8164 63.0227 77.4167 62.8572 76.9999 62.8572H65.9999V51.8572Z" fill="url(#paint0_linear_572_2037)"/>
<path d="M9.42847 21.2143C9.42847 18.0885 10.6702 15.0908 12.8804 12.8805C15.0907 10.6703 18.0884 9.42859 21.2142 9.42859H66.7856C69.9114 9.42859 72.9091 10.6703 75.1194 12.8805C77.3296 15.0908 78.5713 18.0885 78.5713 21.2143V45.5714C77.1118 44.4742 75.5298 43.5503 73.857 42.8183V21.2143C73.857 19.3388 73.112 17.5402 71.7859 16.214C70.4597 14.8879 68.6611 14.1429 66.7856 14.1429H21.2142C19.3387 14.1429 17.5401 14.8879 16.2139 16.214C14.8878 17.5402 14.1428 19.3388 14.1428 21.2143V66.7857C14.1428 68.6612 14.8878 70.4598 16.2139 71.786C17.5401 73.1121 19.3387 73.8572 21.2142 73.8572H42.8182C43.5536 75.5386 44.4808 77.1194 45.5682 78.5714H21.2142C18.0884 78.5714 15.0907 77.3297 12.8804 75.1195C10.6702 72.9092 9.42847 69.9115 9.42847 66.7857V21.2143ZM66.7856 40.8572C67.4108 40.8572 68.0103 40.6088 68.4524 40.1668C68.8944 39.7247 69.1428 39.1252 69.1428 38.5C69.1428 37.8749 68.8944 37.2753 68.4524 36.8333C68.0103 36.3912 67.4108 36.1429 66.7856 36.1429H43.2142C42.589 36.1429 41.9895 36.3912 41.5474 36.8333C41.1054 37.2753 40.857 37.8749 40.857 38.5C40.857 39.1252 41.1054 39.7247 41.5474 40.1668C41.9895 40.6088 42.589 40.8572 43.2142 40.8572H66.7856ZM18.857 22.7857C18.857 22.1606 19.1054 21.561 19.5474 21.119C19.9895 20.6769 20.589 20.4286 21.2142 20.4286H66.7856C67.4108 20.4286 68.0103 20.6769 68.4524 21.119C68.8944 21.561 69.1428 22.1606 69.1428 22.7857C69.1428 23.4109 68.8944 24.0104 68.4524 24.4525C68.0103 24.8945 67.4108 25.1429 66.7856 25.1429H21.2142C20.589 25.1429 19.9895 24.8945 19.5474 24.4525C19.1054 24.0104 18.857 23.4109 18.857 22.7857ZM26.7142 31.4286C24.6303 31.4286 22.6318 32.2564 21.1583 33.7299C19.6848 35.2034 18.857 37.2019 18.857 39.2857C18.857 41.3696 19.6848 43.3681 21.1583 44.8416C22.6318 46.3151 24.6303 47.1429 26.7142 47.1429C28.798 47.1429 30.7965 46.3151 32.27 44.8416C33.7435 43.3681 34.5713 41.3696 34.5713 39.2857C34.5713 37.2019 33.7435 35.2034 32.27 33.7299C30.7965 32.2564 28.798 31.4286 26.7142 31.4286ZM23.5713 39.2857C23.5713 38.4522 23.9024 37.6528 24.4918 37.0634C25.0812 36.474 25.8806 36.1429 26.7142 36.1429C27.5477 36.1429 28.3471 36.474 28.9365 37.0634C29.5259 37.6528 29.857 38.4522 29.857 39.2857C29.857 40.1193 29.5259 40.9187 28.9365 41.5081C28.3471 42.0975 27.5477 42.4286 26.7142 42.4286C25.8806 42.4286 25.0812 42.0975 24.4918 41.5081C23.9024 40.9187 23.5713 40.1193 23.5713 39.2857ZM18.857 61.2857C18.857 59.2019 19.6848 57.2034 21.1583 55.7299C22.6318 54.2564 24.6303 53.4286 26.7142 53.4286C28.798 53.4286 30.7965 54.2564 32.27 55.7299C33.7435 57.2034 34.5713 59.2019 34.5713 61.2857C34.5713 63.3696 33.7435 65.3681 32.27 66.8416C30.7965 68.3151 28.798 69.1429 26.7142 69.1429C24.6303 69.1429 22.6318 68.3151 21.1583 66.8416C19.6848 65.3681 18.857 63.3696 18.857 61.2857ZM26.7142 58.1429C25.8806 58.1429 25.0812 58.474 24.4918 59.0634C23.9024 59.6528 23.5713 60.4522 23.5713 61.2857C23.5713 62.1193 23.9024 62.9187 24.4918 63.5081C25.0812 64.0975 25.8806 64.4286 26.7142 64.4286C27.5477 64.4286 28.3471 64.0975 28.9365 63.5081C29.5259 62.9187 29.857 62.1193 29.857 61.2857C29.857 60.4522 29.5259 59.6528 28.9365 59.0634C28.3471 58.474 27.5477 58.1429 26.7142 58.1429ZM84.857 64.4286C84.857 69.8466 82.7048 75.0427 78.8736 78.8738C75.0425 82.7049 69.8465 84.8572 64.4285 84.8572C59.0105 84.8572 53.8144 82.7049 49.9833 78.8738C46.1522 75.0427 43.9999 69.8466 43.9999 64.4286C43.9999 59.0106 46.1522 53.8145 49.9833 49.9834C53.8144 46.1523 59.0105 44 64.4285 44C69.8465 44 75.0425 46.1523 78.8736 49.9834C82.7048 53.8145 84.857 59.0106 84.857 64.4286ZM65.9999 51.8572C65.9999 51.4404 65.8343 51.0407 65.5396 50.746C65.2449 50.4513 64.8452 50.2857 64.4285 50.2857C64.0117 50.2857 63.612 50.4513 63.3173 50.746C63.0226 51.0407 62.857 51.4404 62.857 51.8572V62.8572H51.857C51.4403 62.8572 51.0406 63.0227 50.7459 63.3174C50.4512 63.6121 50.2856 64.0118 50.2856 64.4286C50.2856 64.8454 50.4512 65.2451 50.7459 65.5398C51.0406 65.8345 51.4403 66 51.857 66H62.857V77C62.857 77.4168 63.0226 77.8165 63.3173 78.1112C63.612 78.4059 64.0117 78.5714 64.4285 78.5714C64.8452 78.5714 65.2449 78.4059 65.5396 78.1112C65.8343 77.8165 65.9999 77.4168 65.9999 77V66H76.9999C77.4167 66 77.8164 65.8345 78.1111 65.5398C78.4058 65.2451 78.5713 64.8454 78.5713 64.4286C78.5713 64.0118 78.4058 63.6121 78.1111 63.3174C77.8164 63.0227 77.4167 62.8572 76.9999 62.8572H65.9999V51.8572Z" fill="#F0F4F8" fill-opacity="0.2"/>
<defs>
<linearGradient id="paint0_linear_572_2037" x1="84.857" y1="47.1429" x2="9.42847" y2="47.1429" gradientUnits="userSpaceOnUse">
<stop stop-color="#5B5142"/>
<stop offset="0.115385" stop-color="#9F8A6D"/>
<stop offset="0.350962" stop-color="#88765C"/>
<stop offset="0.447115" stop-color="#5B5142"/>
<stop offset="0.543269" stop-color="#5B5142"/>
<stop offset="0.759615" stop-color="#9F8A6D"/>
<stop offset="0.860577" stop-color="#83745F"/>
<stop offset="0.961538" stop-color="#5B5142"/>
</linearGradient>
</defs>
</svg>
