<svg width="88" height="88" viewBox="0 0 88 88" fill="none" xmlns="http://www.w3.org/2000/svg">
<g clip-path="url(#clip0_570_2029)">
<path d="M44 27.5C39.6239 27.5 35.4271 29.2384 32.3327 32.3327C29.2384 35.4271 27.5 39.6239 27.5 44C27.5 48.3761 29.2384 52.5729 32.3327 55.6673C35.4271 58.7616 39.6239 60.5 44 60.5C48.3761 60.5 52.5729 58.7616 55.6673 55.6673C58.7616 52.5729 60.5 48.3761 60.5 44C60.5 39.6239 58.7616 35.4271 55.6673 32.3327C52.5729 29.2384 48.3761 27.5 44 27.5ZM33 44C33 41.0826 34.1589 38.2847 36.2218 36.2218C38.2847 34.1589 41.0826 33 44 33C46.9174 33 49.7153 34.1589 51.7782 36.2218C53.8411 38.2847 55 41.0826 55 44C55 46.9174 53.8411 49.7153 51.7782 51.7782C49.7153 53.8411 46.9174 55 44 55C41.0826 55 38.2847 53.8411 36.2218 51.7782C34.1589 49.7153 33 46.9174 33 44ZM30.25 66C29.5207 66 28.8212 66.2897 28.3055 66.8055C27.7897 67.3212 27.5 68.0207 27.5 68.75C27.5 69.4793 27.7897 70.1788 28.3055 70.6945C28.8212 71.2103 29.5207 71.5 30.25 71.5H57.75C58.4793 71.5 59.1788 71.2103 59.6945 70.6945C60.2103 70.1788 60.5 69.4793 60.5 68.75C60.5 68.0207 60.2103 67.3212 59.6945 66.8055C59.1788 66.2897 58.4793 66 57.75 66H30.25Z" fill="#F0F4F8"/>
<path d="M17.776 9.76806C15.8746 10.1133 14.1547 11.1151 12.9164 12.5987C11.6781 14.0823 10.9998 15.9536 11 17.8861V78.1111C11 80.5586 12.0505 82.7201 13.695 84.2161C15.7135 86.5371 18.689 88.0001 22 88.0001H66C68.9174 88.0001 71.7153 86.8411 73.7782 84.7782C75.8411 82.7153 77 79.9174 77 77.0001V22.0001C77 20.0692 76.4917 18.1724 75.5262 16.5002C74.5608 14.8281 73.1722 13.4395 71.5 12.4741V9.88906C71.5009 8.68029 71.2362 7.48608 70.7246 6.39093C70.213 5.29577 69.4669 4.32642 68.5393 3.55145C67.6116 2.77648 66.525 2.21482 65.3563 1.90622C64.1876 1.59761 62.9653 1.54959 61.776 1.76556L17.776 9.76256V9.76806ZM22 16.5001H66C67.4587 16.5001 68.8576 17.0795 69.8891 18.111C70.9205 19.1424 71.5 20.5414 71.5 22.0001V77.0001C71.5 78.4588 70.9205 79.8577 69.8891 80.8891C68.8576 81.9206 67.4587 82.5001 66 82.5001H22C20.5413 82.5001 19.1424 81.9206 18.1109 80.8891C17.0795 79.8577 16.5 78.4588 16.5 77.0001V22.0001C16.5 20.5414 17.0795 19.1424 18.1109 18.111C19.1424 17.0795 20.5413 16.5001 22 16.5001Z" fill="#F0F4F8"/>
</g>
<defs>
<clipPath id="clip0_570_2029">
<rect width="88" height="88" fill="white"/>
</clipPath>
</defs>
</svg>
