<svg width="88" height="88" viewBox="0 0 88 88" fill="none" xmlns="http://www.w3.org/2000/svg">
<path d="M7.33325 73.3333H65.9999M14.0249 44.6086C13.0166 43.8753 12.0999 42.9586 10.9999 39.7503C10.7029 38.9546 9.57358 34.9653 8.61658 31.317C7.80992 28.237 7.08759 25.432 7.42492 24.717C7.69992 23.9836 8.06659 23.4336 9.25825 22.7003C9.99159 22.2493 13.7499 21.3253 14.4833 21.142C15.2166 20.9586 16.2249 20.867 17.0499 21.142C18.6083 21.417 21.8166 26.092 22.6416 26.642C23.0083 27.0086 24.1999 28.0756 25.5749 28.2003C26.5833 28.292 27.5916 28.017 28.6916 27.5586C29.6999 27.1406 49.5916 17.4753 51.4249 16.6503C66.3666 10.417 77.2199 20.6653 78.8699 22.8653C80.5749 24.992 80.9416 25.6336 80.4833 27.467C79.8893 29.392 78.2833 29.7586 77.3666 30.0336C76.4499 30.3086 63.7999 33.7003 58.8499 35.0753C57.7682 35.4273 57.2402 36.135 57.1082 36.267C56.4666 37.1836 53.5516 43.417 52.7266 44.792C52.1583 46.2586 50.5999 48.092 48.5833 48.8253C46.4749 49.5586 42.8082 50.3836 41.9832 50.6586C41.1582 50.9336 39.2332 51.4836 38.5916 51.3003C37.7666 51.117 36.9783 50.292 37.3449 49.0086C37.7116 47.7253 38.4083 44.1503 38.4999 43.6003C38.5916 43.0503 39.5083 40.7586 38.4999 40.667C38.3166 40.392 36.3916 41.217 33.5499 41.8586C31.4379 42.4526 29.2269 43.043 27.6833 43.417C21.7249 45.1586 18.4983 45.617 17.7833 45.617C16.4083 45.617 15.3999 45.4336 14.0249 44.6086Z" stroke="#B0D6F2" stroke-width="6" stroke-linecap="round" stroke-linejoin="round"/>
<path fill-rule="evenodd" clip-rule="evenodd" d="M68.5 67C70.1415 67 71.767 66.6767 73.2835 66.0485C74.8001 65.4203 76.1781 64.4996 77.3388 63.3388C78.4996 62.1781 79.4203 60.8001 80.0485 59.2835C80.6767 57.767 81 56.1415 81 54.5C81 52.8585 80.6767 51.233 80.0485 49.7165C79.4203 48.1999 78.4996 46.8219 77.3388 45.6612C76.1781 44.5004 74.8001 43.5797 73.2835 42.9515C71.767 42.3233 70.1415 42 68.5 42C65.1848 42 62.0054 43.317 59.6612 45.6612C57.317 48.0054 56 51.1848 56 54.5C56 57.8152 57.317 60.9946 59.6612 63.3388C62.0054 65.683 65.1848 67 68.5 67ZM68.1778 59.5556L75.1222 51.2222L72.9889 49.4444L67.0167 56.6097L63.9264 53.5181L61.9625 55.4819L66.1292 59.6486L67.2042 60.7236L68.1778 59.5556Z" fill="#FB7373"/>
</svg>
