<svg width="24" height="24" viewBox="0 0 24 24" fill="none" xmlns="http://www.w3.org/2000/svg">
<path d="M19 6H5C3.89543 6 3 6.89543 3 8V19C3 20.1046 3.89543 21 5 21H19C20.1046 21 21 20.1046 21 19V8C21 6.89543 20.1046 6 19 6Z" stroke="#34495E" stroke-width="2"/>
<path d="M7 6.5H17C17.9571 6.5 18.6245 6.50064 19.1279 6.56836C19.5556 6.62589 19.8073 6.72548 19.9873 6.87305L20.0605 6.93945C20.2452 7.12414 20.3659 7.38316 20.4316 7.87207C20.4869 8.28279 20.494 8.80269 20.4961 9.5H3.50391C3.50604 8.80269 3.51311 8.28279 3.56836 7.87207C3.62589 7.44441 3.72548 7.19266 3.87305 7.0127L3.93945 6.93945C4.12414 6.75477 4.38316 6.63414 4.87207 6.56836C5.37548 6.50064 6.04285 6.5 7 6.5Z" fill="#34495E" stroke="#34495E"/>
<path d="M7 3V6M17 3V6" stroke="#34495E" stroke-width="2" stroke-linecap="round"/>
<path d="M10.5 12.5V13.5H7.5V12.5H10.5Z" fill="black" stroke="#34495E"/>
<path d="M10.5 16.5V17.5H7.5V16.5H10.5Z" fill="black" stroke="#34495E"/>
<path d="M16.5 12.5V13.5H13.5V12.5H16.5Z" fill="black" stroke="#34495E"/>
<path d="M16.5 16.5V17.5H13.5V16.5H16.5Z" fill="black" stroke="#34495E"/>
</svg>
