<svg width="20" height="15" viewBox="0 0 20 15" fill="none" xmlns="http://www.w3.org/2000/svg">
<g clip-path="url(#clip0_37_1560)">
<path d="M9.06083 6.59875L6.8925 2.56125C6.80694 2.39125 6.83 2.23438 6.96167 2.09063C7.09333 1.94688 7.2775 1.875 7.51417 1.875H7.81417C7.92305 1.875 8.02556 1.89312 8.12167 1.92937C8.21778 1.96562 8.29639 2.01687 8.3575 2.08312L12.5992 6.59875H16.2983C16.6289 6.59875 16.9117 6.68687 17.1467 6.86312C17.3822 7.03979 17.5 7.25208 17.5 7.5C17.5 7.74792 17.3822 7.96 17.1467 8.13625C16.9111 8.3125 16.6283 8.40083 16.2983 8.40125H12.5992L8.3575 12.9169C8.29639 12.9831 8.21778 13.0344 8.12167 13.0706C8.02556 13.1069 7.92278 13.125 7.81333 13.125H7.51417C7.27806 13.125 7.09389 13.0531 6.96167 12.9094C6.82944 12.7656 6.80639 12.6088 6.8925 12.4388L9.06083 8.40125H5.4525L3.93583 10.0106C3.88361 10.064 3.82055 10.1056 3.74667 10.1356C3.67278 10.1656 3.59222 10.1806 3.505 10.1806H3.21333C3.03167 10.1806 2.88861 10.1285 2.78417 10.0244C2.67972 9.92021 2.65333 9.80437 2.705 9.67688L3.59 7.5L2.705 5.32313C2.65389 5.19521 2.68028 5.07938 2.78417 4.97563C2.88805 4.87188 3.03111 4.81979 3.21333 4.81938H3.50917C3.59194 4.81938 3.67055 4.83437 3.745 4.86438C3.81944 4.89438 3.88305 4.93604 3.93583 4.98937L5.4525 6.59875H9.06083Z" fill="#34495E"/>
</g>
<defs>
<clipPath id="clip0_37_1560">
<rect width="15" height="20" fill="white" transform="matrix(0 1 -1 0 20 0)"/>
</clipPath>
</defs>
</svg>
