<svg width="20" height="20" viewBox="0 0 20 20" fill="none" xmlns="http://www.w3.org/2000/svg">
<path fill-rule="evenodd" clip-rule="evenodd" d="M14.375 8.74999C14.375 9.48868 14.2295 10.2201 13.9468 10.9026C13.6641 11.585 13.2498 12.2051 12.7275 12.7275C12.2051 13.2498 11.585 13.6641 10.9026 13.9468C10.2201 14.2295 9.48868 14.375 8.74999 14.375C8.01131 14.375 7.27986 14.2295 6.5974 13.9468C5.91494 13.6641 5.29485 13.2498 4.77252 12.7275C4.25019 12.2051 3.83585 11.585 3.55317 10.9026C3.27049 10.2201 3.12499 9.48868 3.12499 8.74999C3.12499 7.25815 3.71763 5.82741 4.77252 4.77252C5.82741 3.71763 7.25815 3.12499 8.74999 3.12499C10.2418 3.12499 11.6726 3.71763 12.7275 4.77252C13.7824 5.82741 14.375 7.25815 14.375 8.74999ZM13.35 14.675C11.843 15.845 9.9467 16.3966 8.04724 16.2177C6.14778 16.0387 4.38792 15.1426 3.12593 13.7117C1.86394 12.2809 1.19468 10.4229 1.25441 8.51593C1.31414 6.609 2.09837 4.7965 3.44744 3.44744C4.7965 2.09837 6.609 1.31414 8.51593 1.25441C10.4229 1.19468 12.2809 1.86394 13.7117 3.12593C15.1426 4.38792 16.0387 6.14778 16.2177 8.04724C16.3966 9.9467 15.845 11.843 14.675 13.35L18.1625 16.8375C18.2546 16.9233 18.3285 17.0268 18.3797 17.1418C18.431 17.2568 18.4585 17.381 18.4607 17.5068C18.463 17.6327 18.4398 17.7578 18.3926 17.8745C18.3455 17.9912 18.2753 18.0973 18.1863 18.1863C18.0973 18.2753 17.9912 18.3455 17.8745 18.3926C17.7578 18.4398 17.6327 18.463 17.5068 18.4607C17.381 18.4585 17.2568 18.431 17.1418 18.3797C17.0268 18.3285 16.9233 18.2546 16.8375 18.1625L13.35 14.675Z" fill="#F0F4F8"/>
</svg>
