<svg width="30" height="30" viewBox="0 0 30 30" fill="none" xmlns="http://www.w3.org/2000/svg">
<path d="M16.875 2.5C16.875 2.5 19.7925 2.765 23.5037 6.4775C27.2162 10.19 27.4813 13.1062 27.4813 13.1062M17.7587 6.92C17.7587 6.92 18.9962 7.2725 20.8525 9.12875C22.7087 10.985 23.0625 12.2225 23.0625 12.2225" stroke="#34495E" stroke-width="1.5" stroke-linecap="round"/>
<path d="M19.5563 19.4287L20.125 18.8287L18.765 17.5375L18.1963 18.1387L19.5563 19.4287ZM21.9988 18.5762L24.3863 19.9525L25.3225 18.3262L22.9338 16.9512L21.9988 18.5762ZM24.8475 22.8012L23.0725 24.67L24.4313 25.9625L26.2063 24.0937L24.8475 22.8012ZM22.0038 25.27C20.21 25.4462 15.5288 25.2962 10.4488 19.9487L9.09 21.2387C14.6263 27.0675 19.9075 27.3625 22.1875 27.1362L22.0038 25.27ZM10.4488 19.9487C5.60375 14.8475 4.79125 10.5437 4.69 8.65622L2.8175 8.75747C2.9425 11.07 3.9225 15.7987 9.09 21.2387L10.4488 19.9487ZM12.1688 11.6512L12.5263 11.2737L11.1675 9.98247L10.8088 10.36L12.1688 11.6512ZM12.8088 6.57372L11.2325 4.34622L9.70125 5.42872L11.2763 7.65747L12.8088 6.57372ZM5.89625 3.86372L3.93625 5.93122L5.29625 7.22247L7.25875 5.15622L5.89625 3.86372ZM11.4888 11.005C11.2638 10.7882 11.0367 10.5736 10.8075 10.3612L10.805 10.3637L10.8013 10.3675L10.7388 10.44C10.6164 10.6022 10.5194 10.7822 10.4513 10.9737C10.3288 11.3175 10.2638 11.7725 10.3463 12.34C10.5088 13.455 11.24 14.9537 13.1488 16.965L14.5088 15.6725C12.7238 13.7937 12.2838 12.6375 12.2013 12.0675C12.1613 11.7925 12.2013 11.6487 12.2175 11.6025L12.2275 11.5787L12.1925 11.625L12.17 11.65C12.17 11.65 12.1675 11.65 11.4888 11.005ZM13.1488 16.965C15.0525 18.97 16.49 19.7562 17.5863 19.935C18.15 20.0262 18.6063 19.9525 18.9513 19.8162C19.1426 19.7416 19.3204 19.636 19.4775 19.5037L19.5225 19.4612L19.54 19.4437L19.5488 19.4362L19.5525 19.4325L19.5538 19.43C19.5538 19.43 19.5563 19.4287 18.8763 18.7825C18.1963 18.1375 18.1975 18.1362 18.1975 18.135L18.2 18.1337L18.2025 18.13L18.2088 18.1237L18.2213 18.1112L18.2675 18.0712C18.28 18.0646 18.2783 18.065 18.2625 18.0725C18.2375 18.0825 18.125 18.1225 17.8875 18.0837C17.385 18.0012 16.3 17.5587 14.5088 15.6725L13.1488 16.965ZM11.2325 4.34622C9.965 2.55372 7.43 2.24997 5.8975 3.86497L7.255 5.15622C7.90875 4.46872 9.06125 4.52247 9.70125 5.42872L11.2325 4.34622ZM4.69 8.65622C4.6625 8.15622 4.88125 7.65747 5.29625 7.22247L3.93625 5.93122C3.26625 6.63622 2.75625 7.61497 2.8175 8.75747L4.69 8.65622ZM23.0713 24.6712C22.7225 25.0387 22.3588 25.235 22.0038 25.27L22.1875 27.1362C23.1213 27.045 23.8775 26.5462 24.4313 25.9625L23.0713 24.6712ZM12.5263 11.275C13.7363 10.0012 13.8213 8.00872 12.8088 6.57497L11.2775 7.65747C11.805 8.40372 11.7238 9.39747 11.1675 9.98247L12.5263 11.275ZM24.3863 19.9525C25.4125 20.5437 25.6138 21.9962 24.8475 22.8025L26.2063 24.0937C27.8375 22.3762 27.3625 19.5012 25.3225 18.3262L24.3863 19.9525ZM20.125 18.83C20.6063 18.3225 21.3575 18.2087 21.9988 18.5775L22.9338 16.9525C21.56 16.1625 19.8588 16.39 18.765 17.54L20.125 18.83Z" fill="#34495E"/>
</svg>
