<svg width="30" height="30" viewBox="0 0 30 30" fill="none" xmlns="http://www.w3.org/2000/svg">
<path d="M7.125 6C6.03098 6 4.98177 6.4346 4.20818 7.20818C3.4346 7.98177 3 9.03098 3 10.125V18.375C3 19.469 3.4346 20.5182 4.20818 21.2918C4.98177 22.0654 6.03098 22.5 7.125 22.5H19.875C20.969 22.5 22.0182 22.0654 22.7918 21.2918C23.5654 20.5182 24 19.469 24 18.375V10.125C24 9.03098 23.5654 7.98177 22.7918 7.20818C22.0182 6.4346 20.969 6 19.875 6H7.125ZM4.5 18.375V15H9.4395L6.969 17.469C6.82817 17.6098 6.74905 17.8008 6.74905 18C6.74905 18.1992 6.82817 18.3902 6.969 18.531C7.10983 18.6718 7.30084 18.7509 7.5 18.7509C7.69916 18.7509 7.89017 18.6718 8.031 18.531L10.5 16.0605V21H7.125C6.42881 21 5.76113 20.7234 5.26884 20.2312C4.77656 19.7389 4.5 19.0712 4.5 18.375ZM4.5 13.5V10.125C4.5 8.676 5.676 7.5 7.125 7.5H10.5V9.402C9.92808 9.07186 9.26321 8.93964 8.6085 9.02586C7.95378 9.11208 7.34581 9.41191 6.87886 9.87886C6.41191 10.3458 6.11208 10.9538 6.02586 11.6085C5.93964 12.2632 6.07186 12.9281 6.402 13.5H4.5ZM10.5 13.5H9C8.70333 13.5 8.41332 13.412 8.16665 13.2472C7.91997 13.0824 7.72771 12.8481 7.61418 12.574C7.50065 12.2999 7.47094 11.9983 7.52882 11.7074C7.5867 11.4164 7.72956 11.1491 7.93934 10.9393C8.14912 10.7296 8.41639 10.5867 8.70736 10.5288C8.99834 10.4709 9.29994 10.5006 9.57403 10.6142C9.84811 10.7277 10.0824 10.92 10.2472 11.1666C10.412 11.4133 10.5 11.7033 10.5 12V13.5ZM12 13.5V12C12 11.7033 12.088 11.4133 12.2528 11.1666C12.4176 10.92 12.6519 10.7277 12.926 10.6142C13.2001 10.5006 13.5017 10.4709 13.7926 10.5288C14.0836 10.5867 14.3509 10.7296 14.5607 10.9393C14.7704 11.1491 14.9133 11.4164 14.9712 11.7074C15.0291 11.9983 14.9994 12.2999 14.8858 12.574C14.7723 12.8481 14.58 13.0824 14.3334 13.2472C14.0867 13.412 13.7967 13.5 13.5 13.5H12ZM16.5 12C16.5 11.4734 16.3614 10.9561 16.098 10.5C15.8347 10.044 15.456 9.66528 15 9.40198C14.5439 9.13868 14.0266 9.00007 13.5 9.00008C12.9734 9.00008 12.4561 9.1387 12 9.402V7.5H19.875C21.324 7.5 22.5 8.676 22.5 10.125V13.5H16.098C16.3613 13.0439 16.5 12.5266 16.5 12ZM15.531 17.469L13.0605 15H22.5V18.375C22.5 19.0712 22.2234 19.7389 21.7312 20.2312C21.2389 20.7234 20.5712 21 19.875 21H12V16.0605L14.469 18.531C14.6098 18.6718 14.8008 18.7509 15 18.7509C15.1992 18.7509 15.3902 18.6718 15.531 18.531C15.6718 18.3902 15.7509 18.1992 15.7509 18C15.7509 17.8008 15.6718 17.6098 15.531 17.469ZM10.125 25.5C8.8425 25.5 7.6965 24.915 6.9405 23.997L7.125 24H19.875C21.3668 24 22.7976 23.4074 23.8525 22.3525C24.9074 21.2976 25.5 19.8668 25.5 18.375V10.125L25.497 9.9405C25.9678 10.3268 26.3469 10.8129 26.6068 11.3636C26.8668 11.9144 27.0011 12.516 27 13.125V18.375C27 20.2647 26.2493 22.0769 24.9131 23.4131C23.5769 24.7493 21.7647 25.5 19.875 25.5H10.125Z" fill="#34495E"/>
</svg>
