<svg width="30" height="30" viewBox="0 0 30 30" fill="none" xmlns="http://www.w3.org/2000/svg">
<path d="M5.77 25C5.19417 25 4.71375 24.8075 4.32875 24.4225C3.94375 24.0375 3.75083 23.5567 3.75 22.98V10.77C3.75 10.1942 3.94292 9.71375 4.32875 9.32875C4.71458 8.94375 5.19458 8.75084 5.76875 8.75H11.25V7.01875C11.25 6.44375 11.4429 5.96334 11.8288 5.5775C12.2146 5.19167 12.695 4.99917 13.27 5H16.7313C17.3063 5 17.7867 5.1925 18.1725 5.5775C18.5583 5.9625 18.7508 6.44292 18.75 7.01875V8.75H24.2313C24.8062 8.75 25.2863 8.94292 25.6713 9.32875C26.0563 9.71459 26.2492 10.195 26.25 10.77V22.9813C26.25 23.5563 26.0571 24.0367 25.6713 24.4225C25.2854 24.8083 24.8054 25.0008 24.2313 25H5.77ZM12.5 8.75H17.5V7.01875C17.5 6.82709 17.42 6.65084 17.26 6.49C17.1 6.32917 16.9237 6.24917 16.7313 6.25H13.2687C13.0771 6.25 12.9008 6.33 12.74 6.49C12.5792 6.65 12.4992 6.82625 12.5 7.01875V8.75ZM25 18.125H17.5V20H12.5V18.125H5V22.9813C5 23.1729 5.08 23.3492 5.24 23.51C5.4 23.6708 5.57625 23.7508 5.76875 23.75H24.2313C24.4229 23.75 24.5992 23.67 24.76 23.51C24.9208 23.35 25.0008 23.1733 25 22.98V18.125ZM13.75 18.75H16.25V16.25H13.75V18.75ZM5 16.875H12.5V15H17.5V16.875H25V10.77C25 10.5775 24.92 10.4008 24.76 10.24C24.6 10.0792 24.4237 9.99917 24.2313 10H5.76875C5.57708 10 5.40083 10.08 5.24 10.24C5.07917 10.4 4.99917 10.5767 5 10.77V16.875Z" fill="#34495E"/>
</svg>
