<svg width="40" height="40" viewBox="0 0 40 40" fill="none" xmlns="http://www.w3.org/2000/svg">
<path d="M6.55597 29.68C6.38153 29.5369 6.24113 29.3568 6.14495 29.1527C6.04878 28.9486 5.99926 28.7256 5.99997 28.5C5.99871 28.3038 6.03703 28.1093 6.11263 27.9282C6.18822 27.7471 6.29956 27.5831 6.43997 27.446L12.456 21.438C12.7372 21.1571 13.1185 20.9993 13.516 20.9993C13.9135 20.9993 14.2947 21.1571 14.576 21.438C14.8569 21.7192 15.0147 22.1005 15.0147 22.498C15.0147 22.8955 14.8569 23.2767 14.576 23.558L11.112 27H32.5C32.8978 27 33.2793 27.158 33.5606 27.4393C33.8419 27.7206 34 28.1022 34 28.5C34 28.8978 33.8419 29.2793 33.5606 29.5607C33.2793 29.842 32.8978 30 32.5 30H11.132L14.568 33.444C14.8483 33.7252 15.0057 34.106 15.0057 34.503C15.0057 34.9 14.8483 35.2808 14.568 35.562C14.2867 35.8429 13.9055 36.0007 13.508 36.0007C13.1105 36.0007 12.7292 35.8429 12.448 35.562L6.55597 29.68ZM33.444 12.68C33.6184 12.5369 33.7588 12.3568 33.855 12.1527C33.9512 11.9486 34.0007 11.7256 34 11.5C34.0012 11.3038 33.9629 11.1093 33.8873 10.9282C33.8117 10.7471 33.7004 10.5831 33.56 10.446L27.544 4.43999C27.2627 4.15909 26.8815 4.00131 26.484 4.00131C26.0865 4.00131 25.7052 4.15909 25.424 4.43999C25.1431 4.72124 24.9853 5.10249 24.9853 5.49999C24.9853 5.89749 25.1431 6.27874 25.424 6.55999L28.886 9.99999H7.49997C7.10214 9.99999 6.72061 10.158 6.43931 10.4393C6.158 10.7206 5.99997 11.1022 5.99997 11.5C5.99997 11.8978 6.158 12.2793 6.43931 12.5607C6.72061 12.842 7.10214 13 7.49997 13H28.868L25.432 16.444C25.1517 16.7252 24.9943 17.106 24.9943 17.503C24.9943 17.9 25.1517 18.2808 25.432 18.562C25.7132 18.8429 26.0945 19.0007 26.492 19.0007C26.8895 19.0007 27.2707 18.8429 27.552 18.562L33.444 12.68Z" fill="#A38D6D"/>
</svg>
