<svg width="6" height="12" viewBox="0 0 6 12" fill="none" xmlns="http://www.w3.org/2000/svg">
<path d="M0.703424 0.632073L5.77892 5.74451C5.81372 5.77947 5.84127 5.82095 5.86001 5.86658C5.87875 5.91221 5.88831 5.96108 5.88813 6.01041C5.88795 6.05973 5.87804 6.10854 5.85897 6.15403C5.8399 6.19952 5.81204 6.2408 5.777 6.27551L0.664559 11.351C0.611922 11.4034 0.544915 11.439 0.472031 11.4532C0.399148 11.4675 0.32367 11.4598 0.255168 11.4311C0.186667 11.4024 0.128227 11.354 0.0872543 11.2921C0.0462823 11.2302 0.0246241 11.1574 0.0250259 11.0832L0.0619654 0.895249C0.0621021 0.820984 0.0842869 0.748431 0.125707 0.686789C0.167128 0.625146 0.225917 0.577191 0.294625 0.549002C0.363333 0.520812 0.438864 0.513659 0.511642 0.528448C0.584421 0.543237 0.651168 0.579303 0.703424 0.632073Z" fill="#34495E"/>
</svg>
