<svg width="20" height="20" viewBox="0 0 20 20" fill="none" xmlns="http://www.w3.org/2000/svg">
<circle cx="10" cy="10" r="10" fill="#34495E" fill-opacity="0.8"/>
<path d="M6.5 6.5C6.36739 6.5 6.24021 6.55268 6.14645 6.64645C6.05268 6.74021 6 6.86739 6 7V11.5C6 11.6326 6.05268 11.7598 6.14645 11.8536C6.24021 11.9473 6.36739 12 6.5 12H13.5C13.6326 12 13.7598 11.9473 13.8536 11.8536C13.9473 11.7598 14 11.6326 14 11.5V7C14 6.86739 13.9473 6.74021 13.8536 6.64645C13.7598 6.55268 13.6326 6.5 13.5 6.5H6.5ZM6.5 5.5H13.5C13.8978 5.5 14.2794 5.65804 14.5607 5.93934C14.842 6.22064 15 6.60218 15 7V11.5C15 11.8978 14.842 12.2794 14.5607 12.5607C14.2794 12.842 13.8978 13 13.5 13H6.5C6.10218 13 5.72064 12.842 5.43934 12.5607C5.15804 12.2794 5 11.8978 5 11.5V7C5 6.60218 5.15804 6.22064 5.43934 5.93934C5.72064 5.65804 6.10218 5.5 6.5 5.5ZM8.5 13.5H11.5C11.6326 13.5 11.7598 13.5527 11.8536 13.6464C11.9473 13.7402 12 13.8674 12 14C12 14.1326 11.9473 14.2598 11.8536 14.3536C11.7598 14.4473 11.6326 14.5 11.5 14.5H8.5C8.36739 14.5 8.24021 14.4473 8.14645 14.3536C8.05268 14.2598 8 14.1326 8 14C8 13.8674 8.05268 13.7402 8.14645 13.6464C8.24021 13.5527 8.36739 13.5 8.5 13.5Z" fill="white"/>
</svg>
