<svg width="20" height="20" viewBox="0 0 20 20" fill="none" xmlns="http://www.w3.org/2000/svg">
<circle cx="10" cy="10" r="10" fill="#34495E" fill-opacity="0.8"/>
<path d="M8.25 7C7.975 7 7.73967 6.90217 7.544 6.7065C7.34833 6.51084 7.25033 6.27534 7.25 6C7.24967 5.72467 7.34767 5.48934 7.544 5.294C7.74033 5.09867 7.97567 5.00067 8.25 5C8.52433 4.99934 8.75983 5.09734 8.9565 5.294C9.15317 5.49067 9.251 5.726 9.25 6C9.249 6.274 9.15117 6.5095 8.9565 6.7065C8.76183 6.9035 8.52633 7.00134 8.25 7ZM11 14H7.775C7.5 14 7.248 13.9022 7.019 13.7065C6.79 13.5108 6.64617 13.2753 6.5875 13L5.5 7.5H6.525L7.625 13H11V14ZM13.75 15L12.3 12.5H8.825C8.58333 12.5 8.37283 12.4272 8.1935 12.2815C8.01417 12.1358 7.89967 11.942 7.85 11.7L7.3 9.025C7.20833 8.625 7.30217 8.27084 7.5815 7.9625C7.86083 7.65417 8.20033 7.5 8.6 7.5C8.89167 7.5 9.15633 7.5875 9.394 7.7625C9.63167 7.9375 9.78367 8.175 9.85 8.475L10.4 11H12.025C12.2 11 12.3625 11.0458 12.5125 11.1375C12.6625 11.2292 12.7833 11.35 12.875 11.5L14.625 14.5L13.75 15Z" fill="white"/>
</svg>
