<svg width="20" height="20" viewBox="0 0 20 20" fill="none" xmlns="http://www.w3.org/2000/svg">
<circle cx="10" cy="10" r="10" fill="#34495E" fill-opacity="0.8"/>
<path d="M10.0002 14.5C9.65017 14.5 9.35434 14.3792 9.11267 14.1375C8.871 13.8958 8.75017 13.6 8.75017 13.25C8.75017 12.9 8.871 12.6042 9.11267 12.3625C9.35434 12.1208 9.65017 12 10.0002 12C10.3502 12 10.646 12.1208 10.8877 12.3625C11.1293 12.6042 11.2502 12.9 11.2502 13.25C11.2502 13.6 11.1293 13.8958 10.8877 14.1375C10.646 14.3792 10.3502 14.5 10.0002 14.5ZM10.0002 9C10.6252 9 11.219 9.1 11.7817 9.3C12.3443 9.5 12.8547 9.775 13.3127 10.125C13.4793 10.25 13.5648 10.4147 13.5692 10.619C13.5735 10.8233 13.5005 11.0003 13.3502 11.15C13.2085 11.2917 13.0335 11.3647 12.8252 11.369C12.6168 11.3733 12.4293 11.317 12.2627 11.2C11.946 10.9833 11.596 10.8125 11.2127 10.6875C10.8293 10.5625 10.4252 10.5 10.0002 10.5C9.57517 10.5 9.171 10.5625 8.78767 10.6875C8.40434 10.8125 8.05434 10.9833 7.73767 11.2C7.571 11.3167 7.3835 11.3708 7.17517 11.3625C6.96684 11.3542 6.79184 11.2792 6.65017 11.1375C6.5085 10.9875 6.43767 10.8105 6.43767 10.6065C6.43767 10.4025 6.521 10.2378 6.68767 10.1125C7.146 9.7625 7.6565 9.4895 8.21917 9.2935C8.78184 9.0975 9.3755 8.99967 10.0002 9ZM10.0002 6C11.0418 6 12.0232 6.17083 12.9442 6.5125C13.8652 6.85417 14.6922 7.3375 15.4252 7.9625C15.5918 8.10417 15.6793 8.27917 15.6877 8.4875C15.696 8.69583 15.6252 8.875 15.4752 9.025C15.3335 9.16667 15.1585 9.23967 14.9502 9.244C14.7418 9.24833 14.5543 9.18367 14.3877 9.05C13.7877 8.55833 13.1148 8.17717 12.3692 7.9065C11.6235 7.63583 10.8338 7.50033 10.0002 7.5C9.1665 7.49967 8.377 7.63517 7.63167 7.9065C6.88634 8.17783 6.21334 8.559 5.61267 9.05C5.446 9.18333 5.2585 9.248 5.05017 9.244C4.84184 9.24 4.66684 9.167 4.52517 9.025C4.37517 8.875 4.30434 8.69583 4.31267 8.4875C4.321 8.27917 4.4085 8.10417 4.57517 7.9625C5.3085 7.3375 6.13567 6.85417 7.05667 6.5125C7.97767 6.17083 8.95884 6 10.0002 6Z" fill="white"/>
</svg>
