<svg width="20" height="20" viewBox="0 0 20 20" fill="none" xmlns="http://www.w3.org/2000/svg">
<circle cx="10" cy="10" r="10" fill="#34495E" fill-opacity="0.8"/>
<g clip-path="url(#clip0_31_496)">
<path d="M13.0855 9.57157C14.2212 9.57157 15.1426 8.42043 15.1426 7.00014C15.1426 5.57985 14.2212 4.42871 13.0855 4.42871C11.9498 4.42871 11.0284 5.57985 11.0284 7.00014C11.0284 8.42043 11.9498 9.57157 13.0855 9.57157ZM13.0855 9.57157V15.5716M6.99979 4.42871V15.5716M9.14265 4.42871V6.57157C9.14265 6.85297 9.08722 7.13162 8.97953 7.3916C8.87184 7.65159 8.714 7.88781 8.51502 8.0868C8.31604 8.28578 8.07981 8.44362 7.81983 8.55131C7.55984 8.659 7.28119 8.71443 6.99979 8.71443C6.43147 8.71443 5.88643 8.48866 5.48456 8.0868C5.0827 7.68493 4.85693 7.13989 4.85693 6.57157V4.42871" stroke="white" stroke-linecap="round" stroke-linejoin="round"/>
</g>
<defs>
<clipPath id="clip0_31_496">
<rect width="12" height="12" fill="white" transform="translate(4 4)"/>
</clipPath>
</defs>
</svg>
