<svg width="30" height="30" viewBox="0 0 30 30" fill="none" xmlns="http://www.w3.org/2000/svg">
<path d="M20 15H25M22.5 17.5V12.5M5 22.5V21.25C5 20.2554 5.39509 19.3016 6.09835 18.5983C6.80161 17.8951 7.75544 17.5 8.75 17.5H13.75C14.7446 17.5 15.6984 17.8951 16.4017 18.5983C17.1049 19.3016 17.5 20.2554 17.5 21.25V22.5C17.5 22.8315 17.3683 23.1495 17.1339 23.3839C16.8995 23.6183 16.5815 23.75 16.25 23.75H6.25C5.91848 23.75 5.60054 23.6183 5.36612 23.3839C5.1317 23.1495 5 22.8315 5 22.5ZM15 10C15 10.9946 14.6049 11.9484 13.9017 12.6517C13.1984 13.3549 12.2446 13.75 11.25 13.75C10.2554 13.75 9.30161 13.3549 8.59835 12.6517C7.89509 11.9484 7.5 10.9946 7.5 10C7.5 9.00544 7.89509 8.05161 8.59835 7.34835C9.30161 6.64509 10.2554 6.25 11.25 6.25C12.2446 6.25 13.1984 6.64509 13.9017 7.34835C14.6049 8.05161 15 9.00544 15 10Z" stroke="black" stroke-width="2" stroke-linecap="round" stroke-linejoin="round"/>
</svg>
