<svg width="230" height="204" viewBox="0 0 230 204" fill="none" xmlns="http://www.w3.org/2000/svg">
<path d="M115.218 42.8584L115.18 42.8555C112.383 42.6404 110.128 44.3694 108.309 47.5898C106.49 50.809 105.183 55.3995 104.278 60.5977C102.47 70.9834 102.292 83.6209 102.686 92.0918L102.699 92.374L102.464 92.5303L84.6934 104.378L84.123 104.758L83.9346 104.1C83.5541 102.768 82.6956 100.827 81.377 99.3486C80.0657 97.8782 78.3562 96.9168 76.2207 97.3438C75.1982 97.5483 74.3867 98.1834 73.7422 99.1426C73.093 100.109 72.63 101.383 72.3164 102.797C71.6895 105.623 71.6874 108.885 71.8818 111.024L71.9062 111.297L71.6904 111.465L61.0283 119.758L60.4229 120.229L60.2363 119.484C59.8523 117.949 58.9871 115.708 57.6592 113.981C56.3721 112.308 54.732 111.211 52.7217 111.525L52.5264 111.561C51.5323 111.759 50.721 112.464 50.0654 113.591C49.4086 114.72 48.9408 116.221 48.625 117.887C47.9942 121.216 47.9922 125.079 48.1875 127.618L48.2109 127.918L47.9561 128.079L15.9688 148.22L15.2881 147.516L114.804 0.611328L115.218 0V42.8584Z" fill="#A38D6D"/>
<path d="M115.218 42.8584L115.256 42.8555C118.052 42.6404 120.307 44.3694 122.127 47.5898C123.946 50.809 125.252 55.3995 126.157 60.5977C127.965 70.9834 128.144 83.6209 127.75 92.0918L127.736 92.374L127.972 92.5303L145.742 104.378L146.312 104.758L146.501 104.1C146.881 102.768 147.74 100.827 149.059 99.3486C150.37 97.8782 152.079 96.9168 154.215 97.3438C155.237 97.5483 156.049 98.1834 156.693 99.1426C157.343 100.109 157.806 101.383 158.119 102.797C158.746 105.623 158.748 108.885 158.554 111.024L158.529 111.297L158.745 111.465L169.407 119.758L170.013 120.229L170.199 119.484C170.583 117.949 171.448 115.708 172.776 113.981C174.063 112.308 175.704 111.211 177.714 111.525L177.909 111.561C178.903 111.759 179.715 112.464 180.37 113.591C181.027 114.72 181.495 116.221 181.811 117.887C182.441 121.216 182.443 125.079 182.248 127.618L182.225 127.918L182.479 128.079L214.467 148.22L215.147 147.516L115.632 0.611328L115.218 0V42.8584Z" fill="#0F4C81"/>
<path d="M224.95 194.264C226.017 194.264 226.876 194.584 227.526 195.224C228.188 195.864 228.518 196.813 228.518 198.072V203H226.022V198.456C226.022 197.773 225.873 197.267 225.574 196.936C225.276 196.595 224.844 196.424 224.278 196.424C223.649 196.424 223.148 196.621 222.774 197.016C222.401 197.4 222.214 197.976 222.214 198.744V203H219.718V194.392H222.102V195.4C222.433 195.037 222.844 194.76 223.334 194.568C223.825 194.365 224.364 194.264 224.95 194.264Z" fill="#34495E"/>
<path d="M212.53 203.128C211.623 203.128 210.807 202.941 210.082 202.568C209.367 202.184 208.807 201.656 208.402 200.984C207.997 200.312 207.794 199.549 207.794 198.696C207.794 197.843 207.997 197.08 208.402 196.408C208.807 195.736 209.367 195.213 210.082 194.84C210.807 194.456 211.623 194.264 212.53 194.264C213.437 194.264 214.247 194.456 214.962 194.84C215.677 195.213 216.237 195.736 216.642 196.408C217.047 197.08 217.25 197.843 217.25 198.696C217.25 199.549 217.047 200.312 216.642 200.984C216.237 201.656 215.677 202.184 214.962 202.568C214.247 202.941 213.437 203.128 212.53 203.128ZM212.53 201.08C213.17 201.08 213.693 200.867 214.098 200.44C214.514 200.003 214.722 199.421 214.722 198.696C214.722 197.971 214.514 197.395 214.098 196.968C213.693 196.531 213.17 196.312 212.53 196.312C211.89 196.312 211.362 196.531 210.946 196.968C210.53 197.395 210.322 197.971 210.322 198.696C210.322 199.421 210.53 200.003 210.946 200.44C211.362 200.867 211.89 201.08 212.53 201.08Z" fill="#34495E"/>
<path d="M202.821 194.392H205.317V203H202.821V194.392ZM204.069 193.192C203.611 193.192 203.237 193.059 202.949 192.792C202.661 192.525 202.517 192.195 202.517 191.8C202.517 191.405 202.661 191.075 202.949 190.808C203.237 190.541 203.611 190.408 204.069 190.408C204.528 190.408 204.901 190.536 205.189 190.792C205.477 191.048 205.621 191.368 205.621 191.752C205.621 192.168 205.477 192.515 205.189 192.792C204.901 193.059 204.528 193.192 204.069 193.192Z" fill="#34495E"/>
<path d="M196.417 203.128C195.703 203.128 195.004 203.043 194.321 202.872C193.639 202.691 193.095 202.467 192.689 202.2L193.521 200.408C193.905 200.653 194.369 200.856 194.913 201.016C195.457 201.165 195.991 201.24 196.513 201.24C197.569 201.24 198.097 200.979 198.097 200.456C198.097 200.211 197.953 200.035 197.665 199.928C197.377 199.821 196.935 199.731 196.337 199.656C195.633 199.549 195.052 199.427 194.593 199.288C194.135 199.149 193.735 198.904 193.393 198.552C193.063 198.2 192.897 197.699 192.897 197.048C192.897 196.504 193.052 196.024 193.361 195.608C193.681 195.181 194.14 194.851 194.737 194.616C195.345 194.381 196.06 194.264 196.881 194.264C197.489 194.264 198.092 194.333 198.689 194.472C199.297 194.6 199.799 194.781 200.193 195.016L199.361 196.792C198.604 196.365 197.777 196.152 196.881 196.152C196.348 196.152 195.948 196.227 195.681 196.376C195.415 196.525 195.281 196.717 195.281 196.952C195.281 197.219 195.425 197.405 195.713 197.512C196.001 197.619 196.46 197.72 197.089 197.816C197.793 197.933 198.369 198.061 198.817 198.2C199.265 198.328 199.655 198.568 199.985 198.92C200.316 199.272 200.481 199.763 200.481 200.392C200.481 200.925 200.321 201.4 200.001 201.816C199.681 202.232 199.212 202.557 198.593 202.792C197.985 203.016 197.26 203.128 196.417 203.128Z" fill="#34495E"/>
<path d="M187.909 194.392H190.405V203H187.909V194.392ZM189.157 193.192C188.698 193.192 188.325 193.059 188.037 192.792C187.749 192.525 187.605 192.195 187.605 191.8C187.605 191.405 187.749 191.075 188.037 190.808C188.325 190.541 188.698 190.408 189.157 190.408C189.615 190.408 189.989 190.536 190.277 190.792C190.565 191.048 190.709 191.368 190.709 191.752C190.709 192.168 190.565 192.515 190.277 192.792C189.989 193.059 189.615 193.192 189.157 193.192Z" fill="#34495E"/>
<path d="M181.816 203.128C180.898 203.128 180.072 202.941 179.336 202.568C178.61 202.184 178.04 201.656 177.624 200.984C177.218 200.312 177.016 199.549 177.016 198.696C177.016 197.843 177.218 197.08 177.624 196.408C178.04 195.736 178.61 195.213 179.336 194.84C180.072 194.456 180.898 194.264 181.816 194.264C182.722 194.264 183.512 194.456 184.184 194.84C184.866 195.213 185.362 195.752 185.672 196.456L183.736 197.496C183.288 196.707 182.642 196.312 181.8 196.312C181.149 196.312 180.61 196.525 180.184 196.952C179.757 197.379 179.544 197.96 179.544 198.696C179.544 199.432 179.757 200.013 180.184 200.44C180.61 200.867 181.149 201.08 181.8 201.08C182.653 201.08 183.298 200.685 183.736 199.896L185.672 200.952C185.362 201.635 184.866 202.168 184.184 202.552C183.512 202.936 182.722 203.128 181.816 203.128Z" fill="#34495E"/>
<path d="M171.098 201.128C171.546 201.128 171.941 201.064 172.282 200.936C172.634 200.797 172.959 200.584 173.258 200.296L174.586 201.736C173.775 202.664 172.591 203.128 171.034 203.128C170.063 203.128 169.205 202.941 168.458 202.568C167.711 202.184 167.135 201.656 166.73 200.984C166.325 200.312 166.122 199.549 166.122 198.696C166.122 197.853 166.319 197.096 166.714 196.424C167.119 195.741 167.669 195.213 168.362 194.84C169.066 194.456 169.855 194.264 170.73 194.264C171.551 194.264 172.298 194.44 172.97 194.792C173.642 195.133 174.175 195.635 174.57 196.296C174.975 196.947 175.178 197.72 175.178 198.616L168.81 199.848C168.991 200.275 169.274 200.595 169.658 200.808C170.053 201.021 170.533 201.128 171.098 201.128ZM170.73 196.152C170.101 196.152 169.589 196.355 169.194 196.76C168.799 197.165 168.591 197.725 168.57 198.44L172.762 197.624C172.645 197.176 172.405 196.819 172.042 196.552C171.679 196.285 171.242 196.152 170.73 196.152Z" fill="#34495E"/>
<path d="M161.596 195.528C161.895 195.112 162.295 194.797 162.796 194.584C163.308 194.371 163.895 194.264 164.556 194.264V196.568C164.279 196.547 164.092 196.536 163.996 196.536C163.281 196.536 162.721 196.739 162.316 197.144C161.911 197.539 161.708 198.136 161.708 198.936V203H159.212V194.392H161.596V195.528Z" fill="#34495E"/>
<path d="M151.873 191.8C152.865 191.8 153.724 191.965 154.449 192.296C155.185 192.627 155.751 193.096 156.145 193.704C156.54 194.312 156.737 195.032 156.737 195.864C156.737 196.685 156.54 197.405 156.145 198.024C155.751 198.632 155.185 199.101 154.449 199.432C153.724 199.752 152.865 199.912 151.873 199.912H149.617V203H147.025V191.8H151.873ZM151.729 197.8C152.508 197.8 153.1 197.635 153.505 197.304C153.911 196.963 154.113 196.483 154.113 195.864C154.113 195.235 153.911 194.755 153.505 194.424C153.1 194.083 152.508 193.912 151.729 193.912H149.617V197.8H151.729Z" fill="#34495E"/>
<path d="M134.888 194.264C135.954 194.264 136.813 194.584 137.464 195.224C138.125 195.864 138.456 196.813 138.456 198.072V203H135.96V198.456C135.96 197.773 135.81 197.267 135.512 196.936C135.213 196.595 134.781 196.424 134.216 196.424C133.586 196.424 133.085 196.621 132.712 197.016C132.338 197.4 132.152 197.976 132.152 198.744V203H129.656V191.128H132.152V195.288C132.482 194.957 132.882 194.707 133.352 194.536C133.821 194.355 134.333 194.264 134.888 194.264Z" fill="#34495E"/>
<path d="M127.446 202.584C127.201 202.765 126.897 202.904 126.534 203C126.182 203.085 125.814 203.128 125.43 203.128C124.395 203.128 123.601 202.867 123.046 202.344C122.491 201.821 122.214 201.053 122.214 200.04V192.488H124.71V194.584H126.838V196.504H124.71V200.008C124.71 200.371 124.801 200.653 124.982 200.856C125.163 201.048 125.425 201.144 125.766 201.144C126.15 201.144 126.491 201.037 126.79 200.824L127.446 202.584Z" fill="#34495E"/>
<path d="M116.649 194.392H119.145V203H116.649V194.392ZM117.897 193.192C117.439 193.192 117.065 193.059 116.777 192.792C116.489 192.525 116.345 192.195 116.345 191.8C116.345 191.405 116.489 191.075 116.777 190.808C117.065 190.541 117.439 190.408 117.897 190.408C118.356 190.408 118.729 190.536 119.017 190.792C119.305 191.048 119.449 191.368 119.449 191.752C119.449 192.168 119.305 192.515 119.017 192.792C118.729 193.059 118.356 193.192 117.897 193.192Z" fill="#34495E"/>
<path d="M113.606 194.392V199.144C113.606 200.413 113.259 201.395 112.566 202.088C111.873 202.781 110.886 203.128 109.606 203.128C108.987 203.128 108.438 203.032 107.958 202.84C107.489 202.648 107.094 202.339 106.774 201.912C106.454 202.339 106.059 202.648 105.59 202.84C105.121 203.032 104.566 203.128 103.926 203.128C102.635 203.128 101.649 202.781 100.966 202.088C100.283 201.395 99.9421 200.413 99.9421 199.144V194.392H102.438V198.952C102.438 199.667 102.561 200.195 102.806 200.536C103.051 200.867 103.435 201.032 103.958 201.032C104.491 201.032 104.886 200.861 105.142 200.52C105.398 200.179 105.526 199.656 105.526 198.952V194.392H108.022V198.952C108.022 199.656 108.15 200.179 108.406 200.52C108.662 200.861 109.057 201.032 109.59 201.032C110.113 201.032 110.497 200.867 110.742 200.536C110.987 200.195 111.11 199.667 111.11 198.952V194.392H113.606Z" fill="#34495E"/>
<path d="M88.2549 203.128C87.5402 203.128 86.8415 203.043 86.1589 202.872C85.4762 202.691 84.9322 202.467 84.5269 202.2L85.3589 200.408C85.7429 200.653 86.2069 200.856 86.7509 201.016C87.2949 201.165 87.8282 201.24 88.3509 201.24C89.4069 201.24 89.9349 200.979 89.9349 200.456C89.9349 200.211 89.7909 200.035 89.5029 199.928C89.2149 199.821 88.7722 199.731 88.1749 199.656C87.4709 199.549 86.8895 199.427 86.4309 199.288C85.9722 199.149 85.5722 198.904 85.2309 198.552C84.9002 198.2 84.7349 197.699 84.7349 197.048C84.7349 196.504 84.8895 196.024 85.1989 195.608C85.5189 195.181 85.9775 194.851 86.5749 194.616C87.1829 194.381 87.8975 194.264 88.7189 194.264C89.3269 194.264 89.9295 194.333 90.5269 194.472C91.1349 194.6 91.6362 194.781 92.0309 195.016L91.1989 196.792C90.4415 196.365 89.6149 196.152 88.7189 196.152C88.1855 196.152 87.7855 196.227 87.5189 196.376C87.2522 196.525 87.1189 196.717 87.1189 196.952C87.1189 197.219 87.2629 197.405 87.5509 197.512C87.8389 197.619 88.2975 197.72 88.9269 197.816C89.6309 197.933 90.2069 198.061 90.6549 198.2C91.1029 198.328 91.4922 198.568 91.8229 198.92C92.1535 199.272 92.3189 199.763 92.3189 200.392C92.3189 200.925 92.1589 201.4 91.8389 201.816C91.5189 202.232 91.0495 202.557 90.4309 202.792C89.8229 203.016 89.0975 203.128 88.2549 203.128Z" fill="#34495E"/>
<path d="M78.8012 201.128C79.2492 201.128 79.6439 201.064 79.9852 200.936C80.3372 200.797 80.6625 200.584 80.9612 200.296L82.2892 201.736C81.4785 202.664 80.2945 203.128 78.7372 203.128C77.7665 203.128 76.9079 202.941 76.1612 202.568C75.4145 202.184 74.8385 201.656 74.4332 200.984C74.0279 200.312 73.8252 199.549 73.8252 198.696C73.8252 197.853 74.0225 197.096 74.4172 196.424C74.8225 195.741 75.3719 195.213 76.0652 194.84C76.7692 194.456 77.5585 194.264 78.4332 194.264C79.2545 194.264 80.0012 194.44 80.6732 194.792C81.3452 195.133 81.8785 195.635 82.2732 196.296C82.6785 196.947 82.8812 197.72 82.8812 198.616L76.5132 199.848C76.6945 200.275 76.9772 200.595 77.3612 200.808C77.7559 201.021 78.2359 201.128 78.8012 201.128ZM78.4332 196.152C77.8039 196.152 77.2919 196.355 76.8972 196.76C76.5025 197.165 76.2945 197.725 76.2732 198.44L80.4652 197.624C80.3479 197.176 80.1079 196.819 79.7452 196.552C79.3825 196.285 78.9452 196.152 78.4332 196.152Z" fill="#34495E"/>
<path d="M68.8526 194.392H71.3486V203H68.8526V194.392ZM70.1006 193.192C69.6419 193.192 69.2686 193.059 68.9806 192.792C68.6926 192.525 68.5486 192.195 68.5486 191.8C68.5486 191.405 68.6926 191.075 68.9806 190.808C69.2686 190.541 69.6419 190.408 70.1006 190.408C70.5593 190.408 70.9326 190.536 71.2206 190.792C71.5086 191.048 71.6526 191.368 71.6526 191.752C71.6526 192.168 71.5086 192.515 71.2206 192.792C70.9326 193.059 70.5593 193.192 70.1006 193.192Z" fill="#34495E"/>
<path d="M65.5311 203.128C64.5604 203.128 63.8031 202.872 63.2591 202.36C62.7151 201.837 62.4431 201.101 62.4431 200.152V191.128H64.9391V200.008C64.9391 200.371 65.0298 200.653 65.2111 200.856C65.4031 201.048 65.6698 201.144 66.0111 201.144C66.1391 201.144 66.2671 201.128 66.3951 201.096C66.5338 201.064 66.6404 201.027 66.7151 200.984L66.8271 202.92C66.4111 203.059 65.9791 203.128 65.5311 203.128Z" fill="#34495E"/>
<path d="M57.1914 193.816C56.2954 193.816 55.6181 194.013 55.1594 194.408C54.7007 194.792 54.4714 195.373 54.4714 196.152V196.84H59.0794V198.92H54.4714V203H51.8794V196.168C51.8794 194.728 52.3274 193.608 53.2234 192.808C54.1301 192.008 55.3941 191.608 57.0154 191.608C57.6554 191.608 58.2581 191.677 58.8234 191.816C59.3887 191.944 59.8794 192.136 60.2954 192.392L59.4954 194.44C58.8554 194.024 58.0874 193.816 57.1914 193.816Z" fill="#34495E"/>
<path d="M39.9106 201.128C40.3586 201.128 40.7532 201.064 41.0946 200.936C41.4466 200.797 41.7719 200.584 42.0706 200.296L43.3986 201.736C42.5879 202.664 41.4039 203.128 39.8466 203.128C38.8759 203.128 38.0172 202.941 37.2706 202.568C36.5239 202.184 35.9479 201.656 35.5426 200.984C35.1372 200.312 34.9346 199.549 34.9346 198.696C34.9346 197.853 35.1319 197.096 35.5266 196.424C35.9319 195.741 36.4812 195.213 37.1746 194.84C37.8786 194.456 38.6679 194.264 39.5426 194.264C40.3639 194.264 41.1106 194.44 41.7826 194.792C42.4546 195.133 42.9879 195.635 43.3826 196.296C43.7879 196.947 43.9906 197.72 43.9906 198.616L37.6226 199.848C37.8039 200.275 38.0866 200.595 38.4706 200.808C38.8652 201.021 39.3452 201.128 39.9106 201.128ZM39.5426 196.152C38.9132 196.152 38.4012 196.355 38.0066 196.76C37.6119 197.165 37.4039 197.725 37.3826 198.44L41.5746 197.624C41.4572 197.176 41.2172 196.819 40.8546 196.552C40.4919 196.285 40.0546 196.152 39.5426 196.152Z" fill="#34495E"/>
<path d="M28.9234 194.264C30.0007 194.264 30.8541 194.584 31.4834 195.224C32.1234 195.853 32.4434 196.803 32.4434 198.072V203H29.9474V198.456C29.9474 197.773 29.8034 197.267 29.5154 196.936C29.2381 196.595 28.8381 196.424 28.3154 196.424C27.7287 196.424 27.2647 196.616 26.9234 197C26.5821 197.373 26.4114 197.933 26.4114 198.68V203H23.9154V198.456C23.9154 197.101 23.3714 196.424 22.2834 196.424C21.7074 196.424 21.2487 196.616 20.9074 197C20.5661 197.373 20.3954 197.933 20.3954 198.68V203H17.8994V194.392H20.2834V195.384C20.6034 195.021 20.9927 194.744 21.4514 194.552C21.9207 194.36 22.4327 194.264 22.9874 194.264C23.5954 194.264 24.1447 194.387 24.6354 194.632C25.1261 194.867 25.5207 195.213 25.8194 195.672C26.1714 195.224 26.6141 194.877 27.1474 194.632C27.6914 194.387 28.2834 194.264 28.9234 194.264Z" fill="#34495E"/>
<path d="M12.2869 194.392H14.7829V203H12.2869V194.392ZM13.5349 193.192C13.0762 193.192 12.7029 193.059 12.4149 192.792C12.1269 192.525 11.9829 192.195 11.9829 191.8C11.9829 191.405 12.1269 191.075 12.4149 190.808C12.7029 190.541 13.0762 190.408 13.5349 190.408C13.9936 190.408 14.3669 190.536 14.6549 190.792C14.9429 191.048 15.0869 191.368 15.0869 191.752C15.0869 192.168 14.9429 192.515 14.6549 192.792C14.3669 193.059 13.9936 193.192 13.5349 193.192Z" fill="#34495E"/>
<path d="M9.77606 194.936C8.81606 194.381 7.78673 194.024 6.68806 193.864V203H4.09606V193.864C2.99739 194.024 1.96273 194.381 0.992061 194.936L0.112061 193C0.880061 192.541 1.71206 192.195 2.60806 191.96C3.50406 191.725 4.42673 191.608 5.37606 191.608C6.33606 191.608 7.26406 191.725 8.16006 191.96C9.06673 192.195 9.89873 192.541 10.6561 193L9.77606 194.936Z" fill="#34495E"/>
<path d="M131.312 179L141.296 156.6H146.416L156.432 179H150.992L142.8 159.224H144.848L136.624 179H131.312ZM136.304 174.2L137.68 170.264H149.201L150.608 174.2H136.304Z" fill="#0F4C81"/>
<path d="M109.125 179V156.6H118.821C120.827 156.6 122.555 156.931 124.005 157.592C125.456 158.232 126.576 159.16 127.365 160.376C128.155 161.592 128.549 163.043 128.549 164.728C128.549 166.392 128.155 167.832 127.365 169.048C126.576 170.243 125.456 171.16 124.005 171.8C122.555 172.44 120.827 172.76 118.821 172.76H112.005L114.309 170.488V179H109.125ZM123.365 179L117.765 170.872H123.301L128.965 179H123.365ZM114.309 171.064L112.005 168.632H118.533C120.133 168.632 121.328 168.291 122.117 167.608C122.907 166.904 123.301 165.944 123.301 164.728C123.301 163.491 122.907 162.531 122.117 161.848C121.328 161.165 120.133 160.824 118.533 160.824H112.005L114.309 158.36V171.064Z" fill="#0F4C81"/>
<path d="M91.4054 179.384C89.6348 179.384 87.9921 179.096 86.4774 178.52C84.9841 177.944 83.6828 177.133 82.5734 176.088C81.4854 175.043 80.6321 173.816 80.0134 172.408C79.4161 171 79.1174 169.464 79.1174 167.8C79.1174 166.136 79.4161 164.6 80.0134 163.192C80.6321 161.784 81.4961 160.557 82.6054 159.512C83.7148 158.467 85.0161 157.656 86.5094 157.08C88.0028 156.504 89.6241 156.216 91.3734 156.216C93.1441 156.216 94.7654 156.504 96.2374 157.08C97.7308 157.656 99.0214 158.467 100.109 159.512C101.219 160.557 102.083 161.784 102.701 163.192C103.32 164.579 103.629 166.115 103.629 167.8C103.629 169.464 103.32 171.011 102.701 172.44C102.083 173.848 101.219 175.075 100.109 176.12C99.0214 177.144 97.7308 177.944 96.2374 178.52C94.7654 179.096 93.1548 179.384 91.4054 179.384ZM91.3734 174.968C92.3761 174.968 93.2934 174.797 94.1254 174.456C94.9788 174.115 95.7254 173.624 96.3654 172.984C97.0054 172.344 97.4961 171.587 97.8374 170.712C98.2001 169.837 98.3814 168.867 98.3814 167.8C98.3814 166.733 98.2001 165.763 97.8374 164.888C97.4961 164.013 97.0054 163.256 96.3654 162.616C95.7468 161.976 95.0108 161.485 94.1574 161.144C93.3041 160.803 92.3761 160.632 91.3734 160.632C90.3708 160.632 89.4428 160.803 88.5894 161.144C87.7574 161.485 87.0214 161.976 86.3814 162.616C85.7414 163.256 85.2401 164.013 84.8774 164.888C84.5361 165.763 84.3654 166.733 84.3654 167.8C84.3654 168.845 84.5361 169.816 84.8774 170.712C85.2401 171.587 85.7308 172.344 86.3494 172.984C86.9894 173.624 87.7361 174.115 88.5894 174.456C89.4428 174.797 90.3708 174.968 91.3734 174.968Z" fill="#0F4C81"/>
<path d="M55.394 179V156.6H65.09C67.0954 156.6 68.8234 156.931 70.274 157.592C71.7247 158.232 72.8447 159.16 73.634 160.376C74.4234 161.592 74.818 163.043 74.818 164.728C74.818 166.392 74.4234 167.832 73.634 169.048C72.8447 170.243 71.7247 171.16 70.274 171.8C68.8234 172.44 67.0954 172.76 65.09 172.76H58.274L60.578 170.488V179H55.394ZM69.634 179L64.034 170.872H69.57L75.234 179H69.634ZM60.578 171.064L58.274 168.632H64.802C66.402 168.632 67.5967 168.291 68.386 167.608C69.1754 166.904 69.57 165.944 69.57 164.728C69.57 163.491 69.1754 162.531 68.386 161.848C67.5967 161.165 66.402 160.824 64.802 160.824H58.274L60.578 158.36V171.064Z" fill="#0F4C81"/>
<path d="M38.5273 179.384C35.3486 179.384 32.8633 178.499 31.0713 176.728C29.2793 174.957 28.3833 172.429 28.3833 169.144V156.6H33.5673V168.952C33.5673 171.085 34.0046 172.621 34.8793 173.56C35.754 174.499 36.9806 174.968 38.5593 174.968C40.138 174.968 41.3646 174.499 42.2393 173.56C43.114 172.621 43.5513 171.085 43.5513 168.952V156.6H48.6713V169.144C48.6713 172.429 47.7753 174.957 45.9833 176.728C44.1913 178.499 41.706 179.384 38.5273 179.384Z" fill="#0F4C81"/>
<path d="M0 179L9.984 156.6H15.104L25.12 179H19.68L11.488 159.224H13.536L5.312 179H0ZM4.992 174.2L6.368 170.264H17.888L19.296 174.2H4.992Z" fill="#0F4C81"/>
<path d="M215.15 179V169.848L216.334 172.984L206.478 156.6H211.982L219.534 169.176H216.366L223.95 156.6H229.038L219.182 172.984L220.334 169.848V179H215.15Z" fill="#A38D6D"/>
<path d="M190.59 173.88L190.302 167.896L201.022 156.6H206.782L197.118 167L194.238 170.072L190.59 173.88ZM185.95 179V156.6H191.102V179H185.95ZM201.278 179L193.31 169.24L196.702 165.56L207.326 179H201.278Z" fill="#A38D6D"/>
<path d="M171.304 179.384C169.512 179.384 167.795 179.149 166.152 178.68C164.509 178.189 163.187 177.56 162.184 176.792L163.944 172.888C164.904 173.571 166.035 174.136 167.336 174.584C168.659 175.011 169.992 175.224 171.336 175.224C172.36 175.224 173.181 175.128 173.8 174.936C174.44 174.723 174.909 174.435 175.208 174.072C175.507 173.709 175.656 173.293 175.656 172.824C175.656 172.227 175.421 171.757 174.952 171.416C174.483 171.053 173.864 170.765 173.096 170.552C172.328 170.317 171.475 170.104 170.536 169.912C169.619 169.699 168.691 169.443 167.752 169.144C166.835 168.845 165.992 168.461 165.224 167.992C164.456 167.523 163.827 166.904 163.336 166.136C162.867 165.368 162.632 164.387 162.632 163.192C162.632 161.912 162.973 160.749 163.656 159.704C164.36 158.637 165.405 157.795 166.792 157.176C168.2 156.536 169.96 156.216 172.072 156.216C173.48 156.216 174.867 156.387 176.232 156.728C177.597 157.048 178.803 157.539 179.848 158.2L178.248 162.136C177.203 161.539 176.157 161.101 175.112 160.824C174.067 160.525 173.043 160.376 172.04 160.376C171.037 160.376 170.216 160.493 169.576 160.728C168.936 160.963 168.477 161.272 168.2 161.656C167.923 162.019 167.784 162.445 167.784 162.936C167.784 163.512 168.019 163.981 168.488 164.344C168.957 164.685 169.576 164.963 170.344 165.176C171.112 165.389 171.955 165.603 172.872 165.816C173.811 166.029 174.739 166.275 175.656 166.552C176.595 166.829 177.448 167.203 178.216 167.672C178.984 168.141 179.603 168.76 180.072 169.528C180.563 170.296 180.808 171.267 180.808 172.44C180.808 173.699 180.456 174.851 179.752 175.896C179.048 176.941 177.992 177.784 176.584 178.424C175.197 179.064 173.437 179.384 171.304 179.384Z" fill="#A38D6D"/>
</svg>
