<svg width="256" height="90" viewBox="0 0 256 90" fill="none" xmlns="http://www.w3.org/2000/svg">
<path d="M41.3945 18.4697L41.3564 18.4658C40.3715 18.3901 39.5298 18.9832 38.8047 20.2666C38.0805 21.5485 37.5504 23.4 37.1797 25.5293C36.4403 29.7769 36.3657 34.9569 36.5273 38.4336L36.541 38.7158L36.3057 38.873L28.9873 43.752L28.418 44.1318L28.2295 43.4727C28.0813 42.9542 27.7448 42.1989 27.2393 41.6318C26.772 41.1079 26.2101 40.7921 25.5303 40.877L25.3936 40.8984C25.0677 40.9636 24.794 41.1667 24.5596 41.5156C24.3204 41.8717 24.1395 42.357 24.0146 42.9199C23.7652 44.045 23.7635 45.3561 23.8418 46.2178L23.8662 46.4902L23.6504 46.6572L19.2598 50.0723L18.6543 50.5439L18.4678 49.7988C18.3161 49.1923 17.9737 48.3099 17.459 47.6406C16.9756 47.0123 16.4164 46.6579 15.7666 46.7324L15.6357 46.7529C15.3383 46.8124 15.0648 47.0274 14.8193 47.4492C14.5726 47.8734 14.3878 48.4547 14.2607 49.125C14.0074 50.4622 14.0058 52.025 14.085 53.0547L14.1084 53.3555L13.8525 53.5166L0.680664 61.8096L0 61.1064L40.9805 0.611328L41.3945 0V18.4697Z" fill="#A38D6D"/>
<path d="M41.3938 18.4697L41.4319 18.4658C42.4169 18.3901 43.2585 18.9832 43.9836 20.2666C44.7078 21.5485 45.238 23.4 45.6086 25.5293C46.348 29.7769 46.4227 34.9569 46.261 38.4336L46.2473 38.7158L46.4827 38.873L53.801 43.752L54.3704 44.1318L54.5588 43.4727C54.707 42.9542 55.0436 42.1989 55.5491 41.6318C56.0163 41.1079 56.5782 40.7921 57.2581 40.877L57.3948 40.8984C57.7206 40.9636 57.9944 41.1667 58.2288 41.5156C58.4679 41.8717 58.6488 42.357 58.7737 42.9199C59.0232 44.045 59.0249 45.3561 58.9465 46.2178L58.9221 46.4902L59.1379 46.6572L63.5286 50.0723L64.134 50.5439L64.3206 49.7988C64.4722 49.1923 64.8146 48.3099 65.3293 47.6406C65.8127 47.0123 66.3719 46.6579 67.0217 46.7324L67.1526 46.7529C67.45 46.8124 67.7235 47.0274 67.969 47.4492C68.2158 47.8734 68.4006 48.4547 68.5276 49.125C68.7809 50.4622 68.7826 52.025 68.7034 53.0547L68.6799 53.3555L68.9358 53.5166L82.1077 61.8096L82.7883 61.1064L41.8079 0.611328L41.3938 0V18.4697Z" fill="#0F4C81"/>
<path d="M82.784 61L90.272 44.2H94.112L101.624 61H97.544L91.4 46.168H92.936L86.768 61H82.784ZM86.528 57.4L87.56 54.448H96.2L97.256 57.4H86.528ZM111.679 61.288C109.295 61.288 107.431 60.624 106.087 59.296C104.743 57.968 104.071 56.072 104.071 53.608V44.2H107.959V53.464C107.959 55.064 108.287 56.216 108.943 56.92C109.599 57.624 110.519 57.976 111.703 57.976C112.887 57.976 113.807 57.624 114.463 56.92C115.119 56.216 115.447 55.064 115.447 53.464V44.2H119.287V53.608C119.287 56.072 118.615 57.968 117.271 59.296C115.927 60.624 114.063 61.288 111.679 61.288ZM124.33 61V44.2H131.602C133.106 44.2 134.402 44.448 135.49 44.944C136.578 45.424 137.418 46.12 138.01 47.032C138.602 47.944 138.898 49.032 138.898 50.296C138.898 51.544 138.602 52.624 138.01 53.536C137.418 54.432 136.578 55.12 135.49 55.6C134.402 56.08 133.106 56.32 131.602 56.32H126.49L128.218 54.616V61H124.33ZM135.01 61L130.81 54.904H134.962L139.21 61H135.01ZM128.218 55.048L126.49 53.224H131.386C132.586 53.224 133.482 52.968 134.074 52.456C134.666 51.928 134.962 51.208 134.962 50.296C134.962 49.368 134.666 48.648 134.074 48.136C133.482 47.624 132.586 47.368 131.386 47.368H126.49L128.218 45.52V55.048ZM151.338 61.288C150.01 61.288 148.778 61.072 147.642 60.64C146.522 60.208 145.546 59.6 144.714 58.816C143.898 58.032 143.258 57.112 142.794 56.056C142.346 55 142.122 53.848 142.122 52.6C142.122 51.352 142.346 50.2 142.794 49.144C143.258 48.088 143.906 47.168 144.738 46.384C145.57 45.6 146.546 44.992 147.666 44.56C148.786 44.128 150.002 43.912 151.314 43.912C152.642 43.912 153.858 44.128 154.962 44.56C156.082 44.992 157.05 45.6 157.866 46.384C158.698 47.168 159.346 48.088 159.81 49.144C160.274 50.184 160.506 51.336 160.506 52.6C160.506 53.848 160.274 55.008 159.81 56.08C159.346 57.136 158.698 58.056 157.866 58.84C157.05 59.608 156.082 60.208 154.962 60.64C153.858 61.072 152.65 61.288 151.338 61.288ZM151.314 57.976C152.066 57.976 152.754 57.848 153.378 57.592C154.018 57.336 154.578 56.968 155.058 56.488C155.538 56.008 155.906 55.44 156.162 54.784C156.434 54.128 156.57 53.4 156.57 52.6C156.57 51.8 156.434 51.072 156.162 50.416C155.906 49.76 155.538 49.192 155.058 48.712C154.594 48.232 154.042 47.864 153.402 47.608C152.762 47.352 152.066 47.224 151.314 47.224C150.562 47.224 149.866 47.352 149.226 47.608C148.602 47.864 148.05 48.232 147.57 48.712C147.09 49.192 146.714 49.76 146.442 50.416C146.186 51.072 146.058 51.8 146.058 52.6C146.058 53.384 146.186 54.112 146.442 54.784C146.714 55.44 147.082 56.008 147.546 56.488C148.026 56.968 148.586 57.336 149.226 57.592C149.866 57.848 150.562 57.976 151.314 57.976ZM164.628 61V44.2H171.9C173.404 44.2 174.7 44.448 175.788 44.944C176.876 45.424 177.716 46.12 178.308 47.032C178.9 47.944 179.196 49.032 179.196 50.296C179.196 51.544 178.9 52.624 178.308 53.536C177.716 54.432 176.876 55.12 175.788 55.6C174.7 56.08 173.404 56.32 171.9 56.32H166.788L168.516 54.616V61H164.628ZM175.308 61L171.108 54.904H175.26L179.508 61H175.308ZM168.516 55.048L166.788 53.224H171.684C172.884 53.224 173.78 52.968 174.372 52.456C174.964 51.928 175.26 51.208 175.26 50.296C175.26 49.368 174.964 48.648 174.372 48.136C173.78 47.624 172.884 47.368 171.684 47.368H166.788L168.516 45.52V55.048ZM181.268 61L188.756 44.2H192.596L200.108 61H196.028L189.884 46.168H191.42L185.252 61H181.268ZM185.012 57.4L186.044 54.448H194.684L195.74 57.4H185.012Z" fill="#0F4C81"/>
<path d="M212.512 61.288C211.168 61.288 209.88 61.112 208.648 60.76C207.416 60.392 206.424 59.92 205.672 59.344L206.992 56.416C207.712 56.928 208.56 57.352 209.536 57.688C210.528 58.008 211.528 58.168 212.536 58.168C213.304 58.168 213.92 58.096 214.384 57.952C214.864 57.792 215.216 57.576 215.44 57.304C215.664 57.032 215.776 56.72 215.776 56.368C215.776 55.92 215.6 55.568 215.248 55.312C214.896 55.04 214.432 54.824 213.856 54.664C213.28 54.488 212.64 54.328 211.936 54.184C211.248 54.024 210.552 53.832 209.848 53.608C209.16 53.384 208.528 53.096 207.952 52.744C207.376 52.392 206.904 51.928 206.536 51.352C206.184 50.776 206.008 50.04 206.008 49.144C206.008 48.184 206.264 47.312 206.776 46.528C207.304 45.728 208.088 45.096 209.128 44.632C210.184 44.152 211.504 43.912 213.088 43.912C214.144 43.912 215.184 44.04 216.208 44.296C217.232 44.536 218.136 44.904 218.92 45.4L217.72 48.352C216.936 47.904 216.152 47.576 215.368 47.368C214.584 47.144 213.816 47.032 213.064 47.032C212.312 47.032 211.696 47.12 211.216 47.296C210.736 47.472 210.392 47.704 210.184 47.992C209.976 48.264 209.872 48.584 209.872 48.952C209.872 49.384 210.048 49.736 210.4 50.008C210.752 50.264 211.216 50.472 211.792 50.632C212.368 50.792 213 50.952 213.688 51.112C214.392 51.272 215.088 51.456 215.776 51.664C216.48 51.872 217.12 52.152 217.696 52.504C218.272 52.856 218.736 53.32 219.088 53.896C219.456 54.472 219.64 55.2 219.64 56.08C219.64 57.024 219.376 57.888 218.848 58.672C218.32 59.456 217.528 60.088 216.472 60.568C215.432 61.048 214.112 61.288 212.512 61.288ZM226.977 57.16L226.761 52.672L234.801 44.2H239.121L231.873 52L229.713 54.304L226.977 57.16ZM223.497 61V44.2H227.361V61H223.497ZM234.993 61L229.017 53.68L231.561 50.92L239.529 61H234.993ZM245.396 61V54.136L246.284 56.488L238.892 44.2H243.02L248.684 53.632H246.308L251.996 44.2H255.812L248.42 56.488L249.284 54.136V61H245.396Z" fill="#A38D6D"/>
<path d="M22.488 77.936C21.528 77.3813 20.4987 77.024 19.4 76.864V86H16.808V76.864C15.7093 77.024 14.6747 77.3813 13.704 77.936L12.824 76C13.592 75.5413 14.424 75.1947 15.32 74.96C16.216 74.7253 17.1387 74.608 18.088 74.608C19.048 74.608 19.976 74.7253 20.872 74.96C21.7787 75.1947 22.6107 75.5413 23.368 76L22.488 77.936ZM24.9989 77.392H27.4949V86H24.9989V77.392ZM26.2469 76.192C25.7882 76.192 25.4149 76.0587 25.1269 75.792C24.8389 75.5253 24.6949 75.1947 24.6949 74.8C24.6949 74.4053 24.8389 74.0747 25.1269 73.808C25.4149 73.5413 25.7882 73.408 26.2469 73.408C26.7055 73.408 27.0789 73.536 27.3669 73.792C27.6549 74.048 27.7989 74.368 27.7989 74.752C27.7989 75.168 27.6549 75.5147 27.3669 75.792C27.0789 76.0587 26.7055 76.192 26.2469 76.192ZM41.6354 77.264C42.7127 77.264 43.566 77.584 44.1954 78.224C44.8354 78.8533 45.1554 79.8027 45.1554 81.072V86H42.6594V81.456C42.6594 80.7733 42.5154 80.2667 42.2274 79.936C41.95 79.5947 41.55 79.424 41.0274 79.424C40.4407 79.424 39.9767 79.616 39.6354 80C39.294 80.3733 39.1234 80.9333 39.1234 81.68V86H36.6274V81.456C36.6274 80.1013 36.0834 79.424 34.9954 79.424C34.4194 79.424 33.9607 79.616 33.6194 80C33.278 80.3733 33.1074 80.9333 33.1074 81.68V86H30.6114V77.392H32.9954V78.384C33.3154 78.0213 33.7047 77.744 34.1634 77.552C34.6327 77.36 35.1447 77.264 35.6994 77.264C36.3074 77.264 36.8567 77.3867 37.3474 77.632C37.838 77.8667 38.2327 78.2133 38.5314 78.672C38.8834 78.224 39.326 77.8773 39.8594 77.632C40.4034 77.3867 40.9954 77.264 41.6354 77.264ZM52.6224 84.128C53.0704 84.128 53.465 84.064 53.8064 83.936C54.1584 83.7973 54.4837 83.584 54.7824 83.296L56.1104 84.736C55.2997 85.664 54.1157 86.128 52.5584 86.128C51.5877 86.128 50.729 85.9413 49.9824 85.568C49.2357 85.184 48.6597 84.656 48.2544 83.984C47.849 83.312 47.6464 82.5493 47.6464 81.696C47.6464 80.8533 47.8437 80.096 48.2384 79.424C48.6437 78.7413 49.193 78.2133 49.8864 77.84C50.5904 77.456 51.3797 77.264 52.2544 77.264C53.0757 77.264 53.8224 77.44 54.4944 77.792C55.1664 78.1333 55.6997 78.6347 56.0944 79.296C56.4997 79.9467 56.7024 80.72 56.7024 81.616L50.3344 82.848C50.5157 83.2747 50.7984 83.5947 51.1824 83.808C51.577 84.0213 52.057 84.128 52.6224 84.128ZM52.2544 79.152C51.625 79.152 51.113 79.3547 50.7184 79.76C50.3237 80.1653 50.1157 80.7253 50.0944 81.44L54.2864 80.624C54.169 80.176 53.929 79.8187 53.5664 79.552C53.2037 79.2853 52.7664 79.152 52.2544 79.152ZM69.9034 76.816C69.0074 76.816 68.33 77.0133 67.8714 77.408C67.4127 77.792 67.1834 78.3733 67.1834 79.152V79.84H71.7914V81.92H67.1834V86H64.5914V79.168C64.5914 77.728 65.0394 76.608 65.9354 75.808C66.842 75.008 68.106 74.608 69.7274 74.608C70.3674 74.608 70.97 74.6773 71.5354 74.816C72.1007 74.944 72.5914 75.136 73.0074 75.392L72.2074 77.44C71.5674 77.024 70.7994 76.816 69.9034 76.816ZM78.2431 86.128C77.2725 86.128 76.5151 85.872 75.9711 85.36C75.4271 84.8373 75.1551 84.1013 75.1551 83.152V74.128H77.6511V83.008C77.6511 83.3707 77.7418 83.6533 77.9231 83.856C78.1151 84.048 78.3818 84.144 78.7231 84.144C78.8511 84.144 78.9791 84.128 79.1071 84.096C79.2458 84.064 79.3525 84.0267 79.4271 83.984L79.5391 85.92C79.1231 86.0587 78.6911 86.128 78.2431 86.128ZM81.5645 77.392H84.0605V86H81.5645V77.392ZM82.8125 76.192C82.3538 76.192 81.9805 76.0587 81.6925 75.792C81.4045 75.5253 81.2605 75.1947 81.2605 74.8C81.2605 74.4053 81.4045 74.0747 81.6925 73.808C81.9805 73.5413 82.3538 73.408 82.8125 73.408C83.2712 73.408 83.6445 73.536 83.9325 73.792C84.2205 74.048 84.3645 74.368 84.3645 74.752C84.3645 75.168 84.2205 75.5147 83.9325 75.792C83.6445 76.0587 83.2712 76.192 82.8125 76.192ZM91.513 84.128C91.961 84.128 92.3557 84.064 92.697 83.936C93.049 83.7973 93.3743 83.584 93.673 83.296L95.001 84.736C94.1903 85.664 93.0063 86.128 91.449 86.128C90.4783 86.128 89.6197 85.9413 88.873 85.568C88.1263 85.184 87.5503 84.656 87.145 83.984C86.7397 83.312 86.537 82.5493 86.537 81.696C86.537 80.8533 86.7343 80.096 87.129 79.424C87.5343 78.7413 88.0837 78.2133 88.777 77.84C89.481 77.456 90.2703 77.264 91.145 77.264C91.9663 77.264 92.713 77.44 93.385 77.792C94.057 78.1333 94.5903 78.6347 94.985 79.296C95.3903 79.9467 95.593 80.72 95.593 81.616L89.225 82.848C89.4063 83.2747 89.689 83.5947 90.073 83.808C90.4677 84.0213 90.9477 84.128 91.513 84.128ZM91.145 79.152C90.5157 79.152 90.0037 79.3547 89.609 79.76C89.2143 80.1653 89.0063 80.7253 88.985 81.44L93.177 80.624C93.0597 80.176 92.8197 79.8187 92.457 79.552C92.0943 79.2853 91.657 79.152 91.145 79.152ZM100.967 86.128C100.252 86.128 99.5534 86.0427 98.8707 85.872C98.1881 85.6907 97.6441 85.4667 97.2387 85.2L98.0707 83.408C98.4547 83.6533 98.9187 83.856 99.4627 84.016C100.007 84.1653 100.54 84.24 101.063 84.24C102.119 84.24 102.647 83.9787 102.647 83.456C102.647 83.2107 102.503 83.0347 102.215 82.928C101.927 82.8213 101.484 82.7307 100.887 82.656C100.183 82.5493 99.6014 82.4267 99.1427 82.288C98.6841 82.1493 98.2841 81.904 97.9427 81.552C97.6121 81.2 97.4467 80.6987 97.4467 80.048C97.4467 79.504 97.6014 79.024 97.9107 78.608C98.2307 78.1813 98.6894 77.8507 99.2867 77.616C99.8947 77.3813 100.609 77.264 101.431 77.264C102.039 77.264 102.641 77.3333 103.239 77.472C103.847 77.6 104.348 77.7813 104.743 78.016L103.911 79.792C103.153 79.3653 102.327 79.152 101.431 79.152C100.897 79.152 100.497 79.2267 100.231 79.376C99.9641 79.5253 99.8307 79.7173 99.8307 79.952C99.8307 80.2187 99.9747 80.4053 100.263 80.512C100.551 80.6187 101.009 80.72 101.639 80.816C102.343 80.9333 102.919 81.0613 103.367 81.2C103.815 81.328 104.204 81.568 104.535 81.92C104.865 82.272 105.031 82.7627 105.031 83.392C105.031 83.9253 104.871 84.4 104.551 84.816C104.231 85.232 103.761 85.5573 103.143 85.792C102.535 86.016 101.809 86.128 100.967 86.128ZM126.318 77.392V82.144C126.318 83.4133 125.971 84.3947 125.278 85.088C124.585 85.7813 123.598 86.128 122.318 86.128C121.699 86.128 121.15 86.032 120.67 85.84C120.201 85.648 119.806 85.3387 119.486 84.912C119.166 85.3387 118.771 85.648 118.302 85.84C117.833 86.032 117.278 86.128 116.638 86.128C115.347 86.128 114.361 85.7813 113.678 85.088C112.995 84.3947 112.654 83.4133 112.654 82.144V77.392H115.15V81.952C115.15 82.6667 115.273 83.1947 115.518 83.536C115.763 83.8667 116.147 84.032 116.67 84.032C117.203 84.032 117.598 83.8613 117.854 83.52C118.11 83.1787 118.238 82.656 118.238 81.952V77.392H120.734V81.952C120.734 82.656 120.862 83.1787 121.118 83.52C121.374 83.8613 121.769 84.032 122.302 84.032C122.825 84.032 123.209 83.8667 123.454 83.536C123.699 83.1947 123.822 82.6667 123.822 81.952V77.392H126.318ZM129.361 77.392H131.857V86H129.361V77.392ZM130.609 76.192C130.151 76.192 129.777 76.0587 129.489 75.792C129.201 75.5253 129.057 75.1947 129.057 74.8C129.057 74.4053 129.201 74.0747 129.489 73.808C129.777 73.5413 130.151 73.408 130.609 73.408C131.068 73.408 131.441 73.536 131.729 73.792C132.017 74.048 132.161 74.368 132.161 74.752C132.161 75.168 132.017 75.5147 131.729 75.792C131.441 76.0587 131.068 76.192 130.609 76.192ZM140.158 85.584C139.913 85.7653 139.609 85.904 139.246 86C138.894 86.0853 138.526 86.128 138.142 86.128C137.107 86.128 136.313 85.8667 135.758 85.344C135.203 84.8213 134.926 84.0533 134.926 83.04V75.488H137.422V77.584H139.55V79.504H137.422V83.008C137.422 83.3707 137.513 83.6533 137.694 83.856C137.875 84.048 138.137 84.144 138.478 84.144C138.862 84.144 139.203 84.0373 139.502 83.824L140.158 85.584ZM147.6 77.264C148.666 77.264 149.525 77.584 150.176 78.224C150.837 78.864 151.168 79.8133 151.168 81.072V86H148.672V81.456C148.672 80.7733 148.522 80.2667 148.224 79.936C147.925 79.5947 147.493 79.424 146.928 79.424C146.298 79.424 145.797 79.6213 145.424 80.016C145.05 80.4 144.864 80.976 144.864 81.744V86H142.368V74.128H144.864V78.288C145.194 77.9573 145.594 77.7067 146.064 77.536C146.533 77.3547 147.045 77.264 147.6 77.264ZM164.585 74.8C165.577 74.8 166.436 74.9653 167.161 75.296C167.897 75.6267 168.463 76.096 168.857 76.704C169.252 77.312 169.449 78.032 169.449 78.864C169.449 79.6853 169.252 80.4053 168.857 81.024C168.463 81.632 167.897 82.1013 167.161 82.432C166.436 82.752 165.577 82.912 164.585 82.912H162.329V86H159.737V74.8H164.585ZM164.441 80.8C165.22 80.8 165.812 80.6347 166.217 80.304C166.623 79.9627 166.825 79.4827 166.825 78.864C166.825 78.2347 166.623 77.7547 166.217 77.424C165.812 77.0827 165.22 76.912 164.441 76.912H162.329V80.8H164.441ZM174.308 78.528C174.607 78.112 175.007 77.7973 175.508 77.584C176.02 77.3707 176.607 77.264 177.268 77.264V79.568C176.991 79.5467 176.804 79.536 176.708 79.536C175.993 79.536 175.433 79.7387 175.028 80.144C174.623 80.5387 174.42 81.136 174.42 81.936V86H171.924V77.392H174.308V78.528ZM183.81 84.128C184.258 84.128 184.653 84.064 184.994 83.936C185.346 83.7973 185.671 83.584 185.97 83.296L187.298 84.736C186.487 85.664 185.303 86.128 183.746 86.128C182.775 86.128 181.917 85.9413 181.17 85.568C180.423 85.184 179.847 84.656 179.442 83.984C179.037 83.312 178.834 82.5493 178.834 81.696C178.834 80.8533 179.031 80.096 179.426 79.424C179.831 78.7413 180.381 78.2133 181.074 77.84C181.778 77.456 182.567 77.264 183.442 77.264C184.263 77.264 185.01 77.44 185.682 77.792C186.354 78.1333 186.887 78.6347 187.282 79.296C187.687 79.9467 187.89 80.72 187.89 81.616L181.522 82.848C181.703 83.2747 181.986 83.5947 182.37 83.808C182.765 84.0213 183.245 84.128 183.81 84.128ZM183.442 79.152C182.813 79.152 182.301 79.3547 181.906 79.76C181.511 80.1653 181.303 80.7253 181.282 81.44L185.474 80.624C185.357 80.176 185.117 79.8187 184.754 79.552C184.391 79.2853 183.954 79.152 183.442 79.152ZM194.528 86.128C193.61 86.128 192.784 85.9413 192.048 85.568C191.322 85.184 190.752 84.656 190.336 83.984C189.93 83.312 189.728 82.5493 189.728 81.696C189.728 80.8427 189.93 80.08 190.336 79.408C190.752 78.736 191.322 78.2133 192.048 77.84C192.784 77.456 193.61 77.264 194.528 77.264C195.434 77.264 196.224 77.456 196.896 77.84C197.578 78.2133 198.074 78.752 198.384 79.456L196.448 80.496C196 79.7067 195.354 79.312 194.512 79.312C193.861 79.312 193.322 79.5253 192.896 79.952C192.469 80.3787 192.256 80.96 192.256 81.696C192.256 82.432 192.469 83.0133 192.896 83.44C193.322 83.8667 193.861 84.08 194.512 84.08C195.365 84.08 196.01 83.6853 196.448 82.896L198.384 83.952C198.074 84.6347 197.578 85.168 196.896 85.552C196.224 85.936 195.434 86.128 194.528 86.128ZM200.621 77.392H203.117V86H200.621V77.392ZM201.869 76.192C201.41 76.192 201.037 76.0587 200.749 75.792C200.461 75.5253 200.317 75.1947 200.317 74.8C200.317 74.4053 200.461 74.0747 200.749 73.808C201.037 73.5413 201.41 73.408 201.869 73.408C202.327 73.408 202.701 73.536 202.989 73.792C203.277 74.048 203.421 74.368 203.421 74.752C203.421 75.168 203.277 75.5147 202.989 75.792C202.701 76.0587 202.327 76.192 201.869 76.192ZM209.129 86.128C208.415 86.128 207.716 86.0427 207.033 85.872C206.351 85.6907 205.807 85.4667 205.401 85.2L206.233 83.408C206.617 83.6533 207.081 83.856 207.625 84.016C208.169 84.1653 208.703 84.24 209.225 84.24C210.281 84.24 210.809 83.9787 210.809 83.456C210.809 83.2107 210.665 83.0347 210.377 82.928C210.089 82.8213 209.647 82.7307 209.049 82.656C208.345 82.5493 207.764 82.4267 207.305 82.288C206.847 82.1493 206.447 81.904 206.105 81.552C205.775 81.2 205.609 80.6987 205.609 80.048C205.609 79.504 205.764 79.024 206.073 78.608C206.393 78.1813 206.852 77.8507 207.449 77.616C208.057 77.3813 208.772 77.264 209.593 77.264C210.201 77.264 210.804 77.3333 211.401 77.472C212.009 77.6 212.511 77.7813 212.905 78.016L212.073 79.792C211.316 79.3653 210.489 79.152 209.593 79.152C209.06 79.152 208.66 79.2267 208.393 79.376C208.127 79.5253 207.993 79.7173 207.993 79.952C207.993 80.2187 208.137 80.4053 208.425 80.512C208.713 80.6187 209.172 80.72 209.801 80.816C210.505 80.9333 211.081 81.0613 211.529 81.2C211.977 81.328 212.367 81.568 212.697 81.92C213.028 82.272 213.193 82.7627 213.193 83.392C213.193 83.9253 213.033 84.4 212.713 84.816C212.393 85.232 211.924 85.5573 211.305 85.792C210.697 86.016 209.972 86.128 209.129 86.128ZM215.533 77.392H218.029V86H215.533V77.392ZM216.781 76.192C216.323 76.192 215.949 76.0587 215.661 75.792C215.373 75.5253 215.229 75.1947 215.229 74.8C215.229 74.4053 215.373 74.0747 215.661 73.808C215.949 73.5413 216.323 73.408 216.781 73.408C217.24 73.408 217.613 73.536 217.901 73.792C218.189 74.048 218.333 74.368 218.333 74.752C218.333 75.168 218.189 75.5147 217.901 75.792C217.613 76.0587 217.24 76.192 216.781 76.192ZM225.242 86.128C224.335 86.128 223.519 85.9413 222.794 85.568C222.079 85.184 221.519 84.656 221.114 83.984C220.708 83.312 220.506 82.5493 220.506 81.696C220.506 80.8427 220.708 80.08 221.114 79.408C221.519 78.736 222.079 78.2133 222.794 77.84C223.519 77.456 224.335 77.264 225.242 77.264C226.148 77.264 226.959 77.456 227.674 77.84C228.388 78.2133 228.948 78.736 229.354 79.408C229.759 80.08 229.962 80.8427 229.962 81.696C229.962 82.5493 229.759 83.312 229.354 83.984C228.948 84.656 228.388 85.184 227.674 85.568C226.959 85.9413 226.148 86.128 225.242 86.128ZM225.242 84.08C225.882 84.08 226.404 83.8667 226.81 83.44C227.226 83.0027 227.434 82.4213 227.434 81.696C227.434 80.9707 227.226 80.3947 226.81 79.968C226.404 79.5307 225.882 79.312 225.242 79.312C224.602 79.312 224.074 79.5307 223.658 79.968C223.242 80.3947 223.034 80.9707 223.034 81.696C223.034 82.4213 223.242 83.0027 223.658 83.44C224.074 83.8667 224.602 84.08 225.242 84.08ZM237.662 77.264C238.729 77.264 239.587 77.584 240.238 78.224C240.899 78.864 241.23 79.8133 241.23 81.072V86H238.734V81.456C238.734 80.7733 238.585 80.2667 238.286 79.936C237.987 79.5947 237.555 79.424 236.99 79.424C236.361 79.424 235.859 79.6213 235.486 80.016C235.113 80.4 234.926 80.976 234.926 81.744V86H232.43V77.392H234.814V78.4C235.145 78.0373 235.555 77.76 236.046 77.568C236.537 77.3653 237.075 77.264 237.662 77.264Z" fill="#34495E"/>
</svg>
