<svg width="178" height="50" viewBox="0 0 178 50" fill="none" xmlns="http://www.w3.org/2000/svg">
<path d="M29.9209 13.6885L29.8818 13.6846C29.2523 13.6365 28.6881 14.007 28.1777 14.9102C27.6681 15.8123 27.2894 17.1275 27.0234 18.6553C26.4936 21.6997 26.4395 25.4184 26.5557 27.916L26.5693 28.1982L26.334 28.3555L21.0654 31.8682L20.4951 32.248L20.3066 31.5889C20.2039 31.2296 19.9703 30.7067 19.624 30.3184C19.3273 29.9857 18.992 29.7925 18.5986 29.8125L18.4268 29.835C18.2377 29.8729 18.0689 29.9907 17.915 30.2197C17.7565 30.456 17.6318 30.7868 17.5439 31.1826C17.3684 31.9742 17.3663 32.9033 17.4219 33.5146L17.4463 33.7861L17.2305 33.9541L14.0693 36.4131L13.4629 36.8848L13.2773 36.1396C13.1712 35.7151 12.9308 35.1 12.5752 34.6377C12.2634 34.2324 11.9302 34.0199 11.5615 34.0312L11.4014 34.0498C11.2407 34.0821 11.0722 34.2009 10.9072 34.4844C10.7409 34.7703 10.6115 35.1716 10.5215 35.6465C10.3422 36.5932 10.34 37.7057 10.3965 38.4395L10.4199 38.7402L10.165 38.9004L0.680664 44.8721L0 44.1689L29.5068 0.611328L29.9209 0V13.6885Z" fill="#A38D6D"/>
<path d="M29.9209 13.6885L29.96 13.6846C30.5895 13.6364 31.1537 14.007 31.6641 14.9102C32.1737 15.8123 32.5524 17.1275 32.8184 18.6553C33.3482 21.6997 33.4023 25.4184 33.2861 27.916L33.2725 28.1982L33.5078 28.3555L38.7764 31.8682L39.3467 32.248L39.5352 31.5889C39.6379 31.2296 39.8715 30.7067 40.2178 30.3184C40.5145 29.9857 40.8498 29.7925 41.2432 29.8125L41.415 29.835C41.6041 29.8729 41.7729 29.9907 41.9268 30.2197C42.0853 30.456 42.21 30.7868 42.2979 31.1826C42.4734 31.9742 42.4755 32.9033 42.4199 33.5146L42.3955 33.7861L42.6113 33.9541L45.7725 36.4131L46.3789 36.8848L46.5645 36.1396C46.6706 35.7151 46.9111 35.1 47.2666 34.6377C47.5784 34.2324 47.9116 34.0199 48.2803 34.0312L48.4404 34.0498C48.6012 34.0821 48.7696 34.2009 48.9346 34.4844C49.1009 34.7703 49.2303 35.1715 49.3203 35.6465C49.4996 36.5932 49.5018 37.7057 49.4453 38.4395L49.4219 38.7402L49.6768 38.9004L59.1611 44.8721L59.8418 44.1689L30.335 0.611328L29.9209 0V13.6885Z" fill="#0F4C81"/>
<path d="M59.941 45.1816L64.933 33.9816H67.493L72.501 45.1816H69.781L65.685 35.2936H66.709L62.597 45.1816H59.941ZM62.437 42.7816L63.125 40.8136H68.885L69.589 42.7816H62.437ZM79.2046 45.3736C77.6153 45.3736 76.3726 44.931 75.4766 44.0456C74.5806 43.1603 74.1326 41.8963 74.1326 40.2536V33.9816H76.7246V40.1576C76.7246 41.2243 76.9433 41.9923 77.3806 42.4616C77.8179 42.931 78.4313 43.1656 79.2206 43.1656C80.0099 43.1656 80.6233 42.931 81.0606 42.4616C81.4979 41.9923 81.7166 41.2243 81.7166 40.1576V33.9816H84.2766V40.2536C84.2766 41.8963 83.8286 43.1603 82.9326 44.0456C82.0366 44.931 80.7939 45.3736 79.2046 45.3736ZM87.638 45.1816V33.9816H92.486C93.4886 33.9816 94.3526 34.147 95.078 34.4776C95.8033 34.7976 96.3633 35.2616 96.758 35.8696C97.1526 36.4776 97.35 37.203 97.35 38.0456C97.35 38.8776 97.1526 39.5976 96.758 40.2056C96.3633 40.803 95.8033 41.2616 95.078 41.5816C94.3526 41.9016 93.4886 42.0616 92.486 42.0616H89.078L90.23 40.9256V45.1816H87.638ZM94.758 45.1816L91.958 41.1176H94.726L97.558 45.1816H94.758ZM90.23 41.2136L89.078 39.9976H92.342C93.142 39.9976 93.7393 39.827 94.134 39.4856C94.5286 39.1336 94.726 38.6536 94.726 38.0456C94.726 37.427 94.5286 36.947 94.134 36.6056C93.7393 36.2643 93.142 36.0936 92.342 36.0936H89.078L90.23 34.8616V41.2136ZM105.644 45.3736C104.758 45.3736 103.937 45.2296 103.18 44.9416C102.433 44.6536 101.782 44.2483 101.228 43.7256C100.684 43.203 100.257 42.5896 99.9476 41.8856C99.6489 41.1816 99.4996 40.4136 99.4996 39.5816C99.4996 38.7496 99.6489 37.9816 99.9476 37.2776C100.257 36.5736 100.689 35.9603 101.244 35.4376C101.798 34.915 102.449 34.5096 103.196 34.2216C103.942 33.9336 104.753 33.7896 105.628 33.7896C106.513 33.7896 107.324 33.9336 108.06 34.2216C108.806 34.5096 109.452 34.915 109.996 35.4376C110.55 35.9603 110.982 36.5736 111.292 37.2776C111.601 37.971 111.756 38.739 111.756 39.5816C111.756 40.4136 111.601 41.187 111.292 41.9016C110.982 42.6056 110.55 43.219 109.996 43.7416C109.452 44.2536 108.806 44.6536 108.06 44.9416C107.324 45.2296 106.518 45.3736 105.644 45.3736ZM105.628 43.1656C106.129 43.1656 106.588 43.0803 107.004 42.9096C107.43 42.739 107.804 42.4936 108.124 42.1736C108.444 41.8536 108.689 41.475 108.86 41.0376C109.041 40.6003 109.132 40.115 109.132 39.5816C109.132 39.0483 109.041 38.563 108.86 38.1256C108.689 37.6883 108.444 37.3096 108.124 36.9896C107.814 36.6696 107.446 36.4243 107.02 36.2536C106.593 36.083 106.129 35.9976 105.628 35.9976C105.126 35.9976 104.662 36.083 104.236 36.2536C103.82 36.4243 103.452 36.6696 103.132 36.9896C102.812 37.3096 102.561 37.6883 102.38 38.1256C102.209 38.563 102.124 39.0483 102.124 39.5816C102.124 40.1043 102.209 40.5896 102.38 41.0376C102.561 41.475 102.806 41.8536 103.116 42.1736C103.436 42.4936 103.809 42.739 104.236 42.9096C104.662 43.0803 105.126 43.1656 105.628 43.1656ZM114.504 45.1816V33.9816H119.352C120.354 33.9816 121.218 34.147 121.944 34.4776C122.669 34.7976 123.229 35.2616 123.624 35.8696C124.018 36.4776 124.216 37.203 124.216 38.0456C124.216 38.8776 124.018 39.5976 123.624 40.2056C123.229 40.803 122.669 41.2616 121.944 41.5816C121.218 41.9016 120.354 42.0616 119.352 42.0616H115.944L117.096 40.9256V45.1816H114.504ZM121.624 45.1816L118.824 41.1176H121.592L124.424 45.1816H121.624ZM117.096 41.2136L115.944 39.9976H119.208C120.008 39.9976 120.605 39.827 121 39.4856C121.394 39.1336 121.592 38.6536 121.592 38.0456C121.592 37.427 121.394 36.947 121 36.6056C120.605 36.2643 120.008 36.0936 119.208 36.0936H115.944L117.096 34.8616V41.2136ZM125.597 45.1816L130.589 33.9816H133.149L138.157 45.1816H135.437L131.341 35.2936H132.365L128.253 45.1816H125.597ZM128.093 42.7816L128.781 40.8136H134.541L135.245 42.7816H128.093Z" fill="#0F4C81"/>
<path d="M148.093 45.3736C147.197 45.3736 146.338 45.2563 145.517 45.0216C144.696 44.7763 144.034 44.4616 143.533 44.0776L144.413 42.1256C144.893 42.467 145.458 42.7496 146.109 42.9736C146.77 43.187 147.437 43.2936 148.109 43.2936C148.621 43.2936 149.032 43.2456 149.341 43.1496C149.661 43.043 149.896 42.899 150.045 42.7176C150.194 42.5363 150.269 42.3283 150.269 42.0936C150.269 41.795 150.152 41.5603 149.917 41.3896C149.682 41.2083 149.373 41.0643 148.989 40.9576C148.605 40.8403 148.178 40.7336 147.709 40.6376C147.25 40.531 146.786 40.403 146.317 40.2536C145.858 40.1043 145.437 39.9123 145.053 39.6776C144.669 39.443 144.354 39.1336 144.109 38.7496C143.874 38.3656 143.757 37.875 143.757 37.2776C143.757 36.6376 143.928 36.0563 144.269 35.5336C144.621 35.0003 145.144 34.579 145.837 34.2696C146.541 33.9496 147.421 33.7896 148.477 33.7896C149.181 33.7896 149.874 33.875 150.557 34.0456C151.24 34.2056 151.842 34.451 152.365 34.7816L151.565 36.7496C151.042 36.451 150.52 36.2323 149.997 36.0936C149.474 35.9443 148.962 35.8696 148.461 35.8696C147.96 35.8696 147.549 35.9283 147.229 36.0456C146.909 36.163 146.68 36.3176 146.541 36.5096C146.402 36.691 146.333 36.9043 146.333 37.1496C146.333 37.4376 146.45 37.6723 146.685 37.8536C146.92 38.0243 147.229 38.163 147.613 38.2696C147.997 38.3763 148.418 38.483 148.877 38.5896C149.346 38.6963 149.81 38.819 150.269 38.9576C150.738 39.0963 151.165 39.283 151.549 39.5176C151.933 39.7523 152.242 40.0616 152.477 40.4456C152.722 40.8296 152.845 41.315 152.845 41.9016C152.845 42.531 152.669 43.107 152.317 43.6296C151.965 44.1523 151.437 44.5736 150.733 44.8936C150.04 45.2136 149.16 45.3736 148.093 45.3736ZM157.736 42.6216L157.592 39.6296L162.952 33.9816H165.832L161 39.1816L159.56 40.7176L157.736 42.6216ZM155.416 45.1816V33.9816H157.992V45.1816H155.416ZM163.08 45.1816L159.096 40.3016L160.792 38.4616L166.104 45.1816H163.08ZM170.016 45.1816V40.6056L170.608 42.1736L165.68 33.9816H168.432L172.208 40.2696H170.624L174.416 33.9816H176.96L172.032 42.1736L172.608 40.6056V45.1816H170.016Z" fill="#A38D6D"/>
</svg>
